<mxfile host="app.diagrams.net" modified="2023-05-09T12:57:42.480Z" agent="Mozilla/5.0 (Windows NT 10.0; Win64; x64) AppleWebKit/537.36 (KHTML, like Gecko) Chrome/112.0.0.0 Safari/537.36 Edg/112.0.1722.68" etag="WeHCg2XEHCNQ1O45hQ4x" version="21.2.9" type="github">
  <diagram name="第 1 页" id="O4tShYMoofDcwOmOFPTD">
    <mxGraphModel dx="1702" dy="913" grid="0" gridSize="10" guides="1" tooltips="1" connect="1" arrows="1" fold="1" page="1" pageScale="1" pageWidth="2336" pageHeight="1654" math="0" shadow="0">
      <root>
        <mxCell id="0" />
        <mxCell id="1" parent="0" />
        <mxCell id="xVzUcxpCqJK35BR_aFPY-7" value="" style="shape=image;verticalLabelPosition=bottom;labelBackgroundColor=default;verticalAlign=top;aspect=fixed;imageAspect=0;image=data:image/png,iVBORw0KGgoAAAANSUhEUgAAAk0AAAGcCAMAAAGEqVTrAAAAAXNSR0IArs4c6QAAAARnQU1BAACxjwv8YQUAAABmUExURf////n5+WxsbFlZWcXFxfz8/IuLi42NjdfX12BgYPHx8enp6WRkZKurq7+/v1xcXHp6etvb26Ojo3l5efj4+MLCwvX19WhoaHh4eAAAAACwUNnZ2URyxHAwoMAAADg4OCAgIAAAAHCACWwAAAAidFJOU////////////////////////////////////////////wAN0MNxAAAACXBIWXMAABcRAAAXEQHKJvM/AAAZZUlEQVR4Xu3dbW/iOteGYaQgNEK0Ev00Hd2zef7/r3xs58RJIIusgEPi6XXM3n3JXA32yhpKg0l3W3XaHRo+fF3c03f7YQnV7+pPwIejyuzqtA9vNjeq5N/f1fl83of/HW/irm63s5dEZe882FXzGd58/3KLu+LDq62U/X8Bn99acld29tGujuHO/ftMBa9ilg9vxF3d/PXjsscsH954NKroX97VKXV7+3HnqV0l2lXn0a6a0KxLj+pvxOedn7yr8UcyT+0qPRjt7ypnn9hV8G/v6qbbn97VR7y72nat/gtq39XIX3/xXt4n3FuV+tn5s9kf+FCi2OwPH2z7Pd7VrLI/3tUsP3lX4dtN+Idz+8Ow/Sbtarhp+LOzX9oVH7+oxl3FsvPj2LS0Kz6+2kjZ47dB61uq3+xd2dEHuwoli/9RwKsY5cMb3a7YEDwse4zy4Y1uV2yY8m/tauS787O7GqFdjf39eKc+tatxKWo+QNau+p7bVbMf/sOJ0UKj+td2dfjgg6vnd9Wcb+6vnt/VnTK7Gv6QuvKu8uP2ebsa++uRbxPyM6XvXg8fbK2rfz5sM37OoNL9SMTnc21oUKfdfveR7kS3VKkmjGpzg8o0KK/tDCp1U3uPvplBfTT7U3iXHnfo8HlpUI997I7b66nwL+9TjT7PwoNKPwdF/I3P5KDY6ay9MqRZg/podh/n2OrBZgbFj6PxXn1Dg+rRoLy2NKhwx9menNjQoE7hPj0t89Dhc9OgHolLei+7i+9RAjtdvlJhUGFEvh9G2Wl79jHhLx5gSG84fAxJg7Kw0586qBP353VVip2GB9nsVIPSoB6KT7Dt+WF0P7oMhp3+aZdnRGeG9PdvXHb0GF/858+ZLx5f4WEuXdLh8xoMKj4BGP2YQfHFU1+d2uy7jzH99/3NTv98f7PT/32z079/Cd/jq//LX/0nf3X35WRbaRwisp74De9wbs8jbER88vF02Nbz7PG8RrOJKm3xblNj8vnpY+KBQXi085jG1OJT0/bHdD13sAyGNHNM4bsLHy2BIc0bU3NetFAMST0+gSFpTBMYksY0gSFVPqZ26ciSj8cZ0owxNTwDkwxe+VfoTXe2b7D5/k03pnY1S/tc/zIYknp8AkPSmCYwJI1pAkP6B8a05L3Ts2PK31n8Lz6egSHdvlT5Vu9+PGAN7lIYknp8AkPa6Jh4csN4Hkhjai00JvY570k4hlT5mNLqVu/5cfa59JjS4/EPnkcIj54fYp/GFQ4MDKn37Dt/MdS7H4/f69yn7Nnn0nWahX1qTBPYp8Y0gX1qTBPY5xvGdPrcHS98/Bj7fEed3Gd62Oc7xhS+u/jOkLPPd4zJjX1qTBPYp8Y0gX1qTBPY5+JjSg8yby6LY2GfS4+pXbW9rZ8R4hqaqH113gT2GXbK0kHHcsj39RND0phGsU+NaQL71JgmsM+fOqbeM52Psc93jCnck29tTM15f2wefG9hn4OdMqTV+ol9akwT2KfGNIF9akwT2Of7xpTW0Dw+Z88+3zemdM7+OqTxc/bss/+St/yat7j8ZQJf/eecX/PGfof23ZjCcD4/Hq+hYZ/vq5MD+9SYJrDPDYyJV6uNvwRPY8oY0s8ZE189+PLbMaV78yGGtN6Y0r152NzDkMZf0Tn+msw+vnrOl6eRdOJvbBIREZF3+7gu+d0fwo946SMZ0YQfPcOjlfOxLVd3bpMHNj/R2Ane80d8oBkf1x1ipXp14v0PNGvqqpOP6uSjOvnUUyd+1u6w/Wmqk4/q5KM6+ZhTP8YHUVHviQ7V6R4PytuHmvjmqaXtozodtj/NrFOoDgVSPwWzpq46+ahOPqqTj+rkozr5qE4+qtPQKf5+ifBQsznuzk37WyYS1WngFB6Kp0KdP4bPI6hOA6FOn2150kPxQ14nojr5qE4+qpOP6uSjOvmoTj6qk4/qNKL3oPxKdbrXf1B+pTrd6z0o1+PxmVNXnXxUJx/VyafuOvEqkU4b9VGdfN5bJwaYsbk8qtMJ27jNThv1UZ18VCefsanHh5jtq92awufHGWDG5vKoTids4zY7bdTHqFNa0sMCqPApVKehpjnv9vtD0zS7ff8Xz6lOPqqTj+rkozr5qE4+qpOP6uSjOt2LL35tT/gWXNfDADM2l0d1OmEbt9lpoz7m1OM6+/Q8Qnd6PK2z5/JMz2GAWbuGfQFUpxO2cZsdBjVt8BvdbrQvfv3cd8+2qJ+8VCcf1clHdfJRnXxUJx/VyUd1GuCh+PEjPtbU+fFkbOr5oXj7E0vv55b4UJfHqE9hgFnYxBX8Om3yRVSnE7Zxm5026hBmPVan9FB8HyoVKnQY1In3T2OAWdhEdTpt8kVUpxO2cZudNuoza+qqk4/q5KM6+ahOPqqTj+rkozrdu16HZun1BVSn0yZfRHU6YRu32WmjPubUQ3n6D8qT8HicR6hPYoBZ2ER1Om3yRVSnE7Zxm5026uK4Do36KZo19VlhBpjFbQwwC5uoTifmXsZtdsI2brPTRn1UJx/VyUd18lGdfFQnH9XJZ3TqzfUlr5+7/aX3gFx1GuAlr+nd888jMMAsbmOAWdhEdTox9zJusxO2cZudNupj1Cm+5JV3z77ulQFmcRsDzMImqtOJuZdxm52wjdvstFGfWVNXnXxUJx/VyUd18jHD/NK2LG5jgFncxgCzsInqdGLuZdxmJ2zjNjtt1Ed18vnhdeI2s/TFYybrxGPzRHUy8di8tdE6caNZ2MRtdsI2brMTtnGbWdzdKEeduByNiIiIiIiIiPxI16d+w7t47ScZ9Tv9t9udBq/9kaHjZ1ud41lleiBekC5Wp2lXr37kc5i/+UXoPxEl6Dl+pDLtw91S6qX0DzCaOt/5Dxub+iWe3Y0VCt30WeUVx4ubM3WVyUVlclGZXFQmF5XJRWVyUZlcKioTCwgyNj9NZXJRmVxUJheVyUVlclGZXFQmF3Pqp3QxrN3uM5+VU5lGtKcwd7vf7XUKIpXpzvWE+IHLOUTp+nN1oDoZm59mlelImT76ZeJ9BahOxuanmVO/PlmnMkXm1M/xaRWeN4DK5KIyuahMLiqTi8rkojK5qEwuKpOLyuSiMrmoTC4qk4vK5KIyuahMQ80lvj1cmt3u0jQ1rr2kOhmbnzY29XxGjpWqVypT3/X8bnqrMiUjU78+W7DbneJVLb66S4Bw/nz77q6RzfanjXXT9bkn/u21/wADddNAE++ULnHl/LnW5fNUJ2Pz0+ZMXWVyUZlcVCYXlclFZXJRmVxUJheVyUVlclGZXFQmF5XJRWVyUZlG9E6IQ2W61z8hDpXpzuCEOFSmOzcnxJOXf337+1CdjM3POe/t5fM3J8QjddO9dD0ZTohDZXJRmVxUJheVyUVlclGZXCovE789JEtBJ5XJRWVyUZlcVCaXt5aJ8WVsXgDVyeI2bjRLQSeVyUVlclGZXFQml7GpN7vPuHr3sLv0T/GqTDfyicv9UWVqjUw9/i5IToOHD/q/0v7VU+GML2PzAqhOFrdxo1kKeoyfC89Pqny0p3fz1T/UTQM8RZfuoAKVaXzqXEUm/Hs7hDf5iRWVyUdlclGZXFQmF5XJRWVyUZlcVCYXlclFZXJRmVxUJheVyUVlclGZRrB8vil4TV7Gl7F5AVQni9u40SwFncypc25ut/sod7kGxpexeQFUJ4vbuNEsBZ2sqV9/Hetu96Uy2VPvls/3nzLYxwX0z2N8GafkF0B1sriNG80YlIvZTddnoboqqZtG8OtYe1VSmXxUJheVyUVlclGZXFQmF5XJRWVyUZlcVCYXlclFZXJRmVxUJheVaag9Db47xDOYzUVnL8enzmnwU3cGs6Uy9eUFz3uV6Wpk6rmJ4jr628uqpzPNz2J8Wdz290YKvozqZHEbN5qloM/Dy6rHegV5xfMi3UR1shR8GdXJ4jZuNEtBp7Gpc1n11E1FL6vO+LK4jepkKfgyqpPFbdxoloJOc6auMrmoTC4qk4vK5KIyuahMLiqTi8rkojK5qEwuKpOLyuSiMrmoTC4q053jqb1cw77JJy9VphEf6RIp1zO9icp05+aEePLyZdUZXxa3UZ0sBV9GdbK4jRvNUtDHXhc+VibeP43xZXEb1clS8GVUJ4vbuNEsBZ3MqV9fs6IyRebUu+vJpLuoaFaZGF8nbGN8WcxRnSxuex23mcVt3GiWgk5zpq4yuahMLiqTi8rkojK5qEwuKpOLyuSiMrmoTC4qk4vK5KIyuahMQyyfj++eXj7P+DphG+PLYo7qZHHb67jNLG7jRrMUdBqbOmfk0rt0BhMqUx/nd9uLyahMycjUebbg+qTBcPm8G+PrhG2ML4tn46lOlk7Rv4zbzOI2bjRrx+kz1k3t8vm8ij6dEo/UTQNp+Xz89xbePb18nvF1wjbGl8Uc1cnittdxm1ncxo1mKeg0Z+oqk4vK5KIyuahMLiqTi8rkojK5mNn/boVtjK8TtjG+LH4t1cnittdxm1ncxo1mKeikMrmoTC4qk4vK5PKzy8RtdmJujMo0EHNjJsvEefFIZTJxXjxRmSx53XO00TJxm52wjdvMYo4bzcImbrMTc2MmypRX0UffFobXCdsYXydsY3xZ/FrGl8Vt83CbnbCN28xijhvNwiZusxNzoyiBIZ8Ql4fSCXEREREREREREREREREREanPsfnY7T6bPZ/Gj38fwrtzo+eBZa5TaKbYQtfe+fq9O6ib5Cn79l6Jd7vUSamb9k2kjpIZjm0bnbl2cbqnSt3UOnUfXrGwTH4YDv9jh7SEt32LqW7iA/lBvEf9fP2O9nm9tjqPwoN+j12pm36ipY66uuknUjdJOeomKUfdJOWom6QcdZOUo26qCC9WtpFbjbqpIvSMjdxq1E0VoWds5FajbqoIPWMjtxp1U0XoGRu51aibKkLP2MitRt1UEXrGRm416qaK0DM2cquZf9SPp6a5dAvEd7vfzf3yJnXTEugZG7nVzD7qX+nXjnfr5o6nfW/dXKZuWgA9YyO3mrlH/XxiTS/3TufTub8KM1M3LYCesZFbzdyjzgsNrivE96fjYE1v9j3rV46JCz1jI7eaud2UXlgXmyq9TiW9ZOUS/s+/t+5K900LoGds5FYz+6jv29dphmbKK8T1ne5N6BkbudUsddTVTQugZ2zkVqNuqgg9YyO3GnVTRegZG7nVqJsqQs/YyK1G3VQResZGbjXqporQMzZyq1E3VYSesZFbjbqpIvSMjdxq1E0VoWds5FajbqoIPWMjtxp1U0XoGRu51aibKkLP2MitRt1UEXrGRm416qaK0DM2cqtRN1WEnrGRW43zqJ/jqqb9dUHTV1wxd2qOcbtxdWd10wLoGRu51fiO+vH26vNB+kTd9E70jI3canxH/fbq87+b5rqiNxrpqHZd+F5vSr6hZ2znXw+++g1vnPdN19cW0E1Jd5VwXS/8PegZG7nVOLtp5Orz6qa3o2ds5FbjPerpW1r8jhZ/EdQ5vlAldZauPv9O9IyN3GqWOurqpgXQMzZyq1E3VYSesZFbjbqpIvSMjdxq1E0VoWds5FajbqoIPWMjtxp1U0XoGRu51aibKkLP2MitRt1UEXrGRm416qaK0DM2cqtRN1WEnrGRW426qSL0jI3catRNFaFnbORWo26qCD1jI7cadVNF6BkbudXMPurWCvEb6qYF0DM2cquZe9TNFeI31E0LoGds5FYz96ibK8RvqJsWQM/YyK1m9n3T4xXiWXyVwb5dev5Lfwr9oWds/fC7/0Szu+nxCvFM900LoGds5FYz/6inpeD3K8RvqJsWQM/YyK1mqaOubloAPWMjtxp1U0XoGRu51aibKkLP2MitRt1UEXrGRm416qaK0DM2cqtRN1WEnrGR+98UcsWpmypCz9jI0TM2csWpmypCz9jI0TM2csWpmypCz9jI0TM2csWpmypCz9jI0TM2csX9u91E4UzEakLP2MgxQxu54tRNFaFnbOSYoY1cceqmitAzNnLM0EauOHVTRegZGzlmaCNXnPeoH0/N5boYfHc8XJomrWnah63N5bTFdeEUzkSsJvSMjRwztJErznnUv+7XyH1s/OrzFM5ErCb0jI0cM7SRK8531M+n+/W7X014s1c3vRE9YyPHDG3kivMd9dvXFgS/u5c9feVvgZ109flVF4ZTOFM/W8kfesZGjhnayBX9418Xfmxfl9K91Onz0n+VweH33QMn3TctgJ6xkWOGNnLFOY/6PrZTaqbYR+mz5BDvlX7rUfh70DM2cszQRq64pY66umkB9IyNHDO0kStO3VQResZGjhnayBWnbqoIPWMjxwxt5IpTN1WEnrGRY4Y2csWpmypCz9jIMUMbueLUTRWhZ2zkmKGNXHHqporQMzZyzNBGrjh1U0XoGRs5ZmgjV5y6qSL0jI0cM7SRK07dVBF6xkaOGdrIFaduqgg9YyPHDG3kilM3VYSesZFjhjZyxambKkLP2MgxQxu54tRNFaFnbOSYoY1cceqmitAzNnLM0EauuNlH/ebq84e45f4iquqmJdAzNnLM0EauuLlHffzq81ot9xb0jI0cM7SRK27uUR9ZIc4y36G0LjwtC/+1EgpnIlYTesZGjhnayJXlXhfeub/6/Nfoy1Z037QAesZGjhnayBU3u5turj7/ebl/vUqkbloAPWMjxwxt5Iqbf9S7q89f9rtD/KS5fLV/1aNuWgA9YyPHDG3kilvqqKubFkDP2MgxQxu54tRNFaFnbOSYoY1cceqmitAzNnLM0EauOHVTRegZGzlmaCNXnLqpIvSMjRwztJErTt1UEXrGRo4Z2sgVp26qCD1jI8cMbeSKUzdVhJ6xkWOGNnLFqZsqQs/YyDFDG7ni1E0VoWds5JihjVxx6qaK0DM2cszQRq44dVNF6BkbOWZoI1ecuqki9IyNHDO0kStO3VQResZGjhnayBXnPOrD1eDho+a6au5+EW+ibloAPWMjxwxt5IrzHfX71eDntrN0vfB3omds5JihjVxxvqN+vxqcpbxp6dxYR6mbFkDP2MgxQxu54pz3Tdfeyd3Uf5nB7nT/Eqhqrj7/dwq5LfyhZ2zkmKGNXMk/8Y336vM3q8EHjRW+D451Ex+shsKZiNEzNnJbQM/YyDFDG7nivEc9Pu5uV4OHNmq/vzW/j+3m/u/yuVI3LYCesZFjhjZyxS111NVNC6BnbOSYoY1cceqmKeS2gJ6xkWOGNnLFqZumkNsCesZGjhnayBWnbppCbgvoGRs5ZmgjV5y6aQq5LaBnbOSYoY1cceqmKeS2gJ6xkWOGNnLFqZumkNsCesZGjhnayBWnbppCbgvoGRs5ZmgjV5y6aQq5LaBnbOSYoY1cceqmKeS2gJ6xkWOGNnLFqZumkNsCesZGjhnayBWnbppCbgvoGRs5ZmgjV5y6aQq5LaBnbOSYoY1cceqmKeS2gJ6xkWOGNnLFzT/qx9OlyQvE49KnS2/dXKZuWgA9YyPHDG3kipt91L/adXOn9Em8unN/3VxH3bQAesZGjhnayBU396ifT+luqddC6qa3oWds5JihjVxxc4/6/esNBivEs7gufNVl4dNXn29j9IyN3Bb+0DM2cszQ9iseleL//Zp99fnzyGuhdN/0JvSMjRwztJErbvZRP19CO6VmitcLD6z7Jj5YDYUzEaNnbOS2gJ6xkWOGNnLFLXXUl+smCmcjR+FMxOgZG7ktYII2cszQRq44ddMUclvABG3kmKGNXHHqpinktoAJ2sgxQxu54tRNU8htARO0kWOGNnLFqZumkNsCJmgjxwxt5IpTN00htwVM0EaOGdrIFadumkJuC5igjRwztJErTt00hdwWMEEbOWZoI1ecumkKuS1ggjZyzNBGrjh10xRyW8AEbeSYoY1cceqmKeS2gAnayDFDG7ni1E1TyG0BE7SRY4Y2csWpm6aQ2wImaCPHDG3kilM3TSG3BUzQRo4Z2sgVp26aQm4LmKCNHDO0kSvOedSHV5/vPlvh6vMUzkaOwpmI0TM2clvABG3kmKGNXHG+oz68+nzvsxWuPk/hbOQonIkYPWMjtwVM0EaOGdrIFec76sPV4L13D64+f0725/OvsiicjRyFMxGjZ2zktoAJ2sgxQxu5ssLRdt43tf3DEvC7a9G/9XrhFM5GjsKZiNEzNnJbwARt5JihjVxxzm4aXH3+9lr07736PIWzkaNwJmL0jI3cFjBBGzlmaCNXnPeod1efj68tyJ+tcPV5CmcjR+FMxOgZG7ktYII2cszQRq64pY66umkBTNBGjhnayBWnbppCbguYoI0cM7SRK07dNIXcFjBBGzlmaCNXnLppCrktYII2cszQRq44ddMUclvABG3kmKGNXHHqpinktoAJ2sgxQxu54tRNU8htARO0kWOGNnLFbaeb/ptCjsLZyFE4EzF6xkZuC5igjRwztJErTt00hdwWMEEbOWZoI1ecumkKuS1ggjZyzNBGrjh10xRyW8AEbeSYoY1cceqmKeS2gAnayDFDWxtjgrY2NoO6aQq5LWCCNnLM0NbGmKCtjc2gbppCbguYoI0cM7S1MSZoa2MzvNhNw/XiPeqmBTBBGzlmaGtjTNDWxmZ4rZuG68X71E1zMENbG2OCtjZWazcNF4r3qZvmYIa2NsYEbW2s2vum2xXi2eVbfqD/4/A/48ja8LxCXOQV6SVQxmvqRERERERERERERES2a7f7f6+4xxRwTIIoAAAAAElFTkSuQmCC;" vertex="1" parent="1">
          <mxGeometry x="1651.996612374442" y="76.9914848981585" width="310" height="216.85" as="geometry" />
        </mxCell>
        <mxCell id="xVzUcxpCqJK35BR_aFPY-6" value="" style="shape=image;verticalLabelPosition=bottom;labelBackgroundColor=default;verticalAlign=top;aspect=fixed;imageAspect=0;image=data:image/png,iVBORw0KGgoAAAANSUhEUgAAAk0AAAGcCAMAAAGEqVTrAAAAAXNSR0IArs4c6QAAAARnQU1BAACxjwv8YQUAAABpUExURf////n5+WxsbFlZWcXFxY2Njenp6WRkZKurq7+/v6Ojo3l5efj4+Pz8/IuLi2BgYPHx8VxcXNvb29fX13h4eAAAAACwUIqKitnZ2Xp6esLCwvX19WhoaERyxHAwoMAAADg4OCAgIAAAADMxVH0AAAAjdFJOU/////////////////////////////////////////////8AZimDlgAAAAlwSFlzAAAXEQAAFxEByibzPwAAFghJREFUeF7t3dFy4roShWGqoIpkrlJkZ7jae3Le/yWPJf1YNqhFQ6xYnqzvYpI4C6NueiDEMez6tefjl70stytZxQsfF3B6dBh+D/j0q7QrP3tXBz66fcuqHvaDd/Wy+4fPnOxdnfjoZu/qYSvu6t8Bn17reFfF78f/zqdrIcqn18Ku4vffs7gnQ4jy6TV7VWVL7+q/AV9PbG1X5f/MT+2q/Nj81K5u5Kh2dc/zuzqEu2T+p0Yhmv47h12xcWL8Pv+VA/Z1LUR9qyp/f2KZXf0ZaFe+Xcm32e/OfCaynEd/jRLvGJahXflVd/XYPcN3reox2pVfZVc/879z/EGlrONdWd8f/jvzc/QoRPn0WtjV9c/atd+ghCifXquuqmDpXd37UdSng1298XHiuV298nHmuV1dy1Ht6p6v7or/qkGIPvrU2fjvHKK+VZW/P7HMrvp8kvr1XY2/DPv6rh7+3bb8rR4+5iUif7N4l9DyD1vCY1PAl31gTVrUXaxJi7qLNT20qAX/IqmMNT20qNNwd9DyHkEz5caatKi7WNP2F5V/Rufp+dJY02+e6Zu+9Xkja9JM3cWaWi0q/BYh4Esn1rT9RcUHZN/ks6anF8XFHZd/4AGZfX7Doh7APntdVPidWcA3qliTFnUXa9r+oh54QGaf/57ib9oDvlHFmn7ny/MIfOWhB2T2OauUNa1387FPLeou9qlFhQMh1cFnn9+6qP1rh4u6i30uuigu7rr8RDiqFWhR97AmLWqG0+8+pljTn48P9vn744N9/vvxwT7/I1zAxR+5fFyLiKwnPDlu+uvqx73FRfFFJ+KaorXvtkrXrzXd0pp8tCYfrclHa/LpfU17HvH6WVN4DE5nzjRaE09cwvOpusn1D216i43qaE0jremW1pTwtUlrSvjapDUlfG3SmhK+Nk2vv/FjMCt6ZE3Nnwezoof6NLRpfwyfdLSmkdZ0S2tK+NqkNSV8bdKaEr42aU0JX5um1z883sUnnf2sKTwGv6Q1HfgjmGWxovt/5DrpyX537K1PmdZ0S2tK+Nr016yJg/HhbwQewIq0pjtYkdZ0Bysa1sSlrctPr394DI4vrNHPmibPg3nQNLFH8/VgylgRry0R8aB7ZdKT8Dw4vvRBT7fdhdZ06y9cE3/o5fr7NVakNd3BirSmO1iR1nQHK3psTcMDSzy9q581xT9jjQ/Dd58Hs0dexCniOzWs6KHH4N3pM/1k0NNtd2GsiT3O9smKtKYJ9qg1XWhNt7SmRGuq4tKPremf3bH2PJg9fuea4mNwWhMPmlfY4/Qx9Dseg6u/L2CP33vbXXzjmrj0/PJaU/LlNXHCEy8wGWlNidaUkIm0pmT7a0qvLtvXmtLLLHBiZcKK/vwZz8j8PZ6R+e94RqZ9SieXfujycRUXn/ExWERERL7d8MNK+nnlV/xXyk7DD1Dx9/an/EPLP/xQ81Ol4xhX9rvX+DufdCJeNP+p7+fx1q8++ahPPuqTj/rkoz75qE8+6pOP+uSjPvmoTwXD85bwzC7+A/XpVnj6G573nff78T0x7/6Fe1c4VJGx/XnFOeH3KkOvxqfJ25onupOx/Xne+tUnH/XJR33yUZ981Ccf9clHffJRn3zUJx/1qeCYngJPj+2pT7cux4P3kxdHD8+D44lmW/jnne5k77PvP/FPcU7Gvy/IR4Q1Tz7qk4/65KM++ahPPuqTj/rkoz75qE8+6pOP+lTA8+Dda/5DVvXp1uV58HnyB7/qU8H4PFh9uvDWrz75qE8+6pOP+uSjPvl8vU+cXJ6xvQW6k7H9eeqTj/rkoz75qE8+xfp5HvyyO+a/9+Xj8+hOxvYW6E42bONasxR1KtU/Pg/exxdBjdSngibHg1ldxvYW6E42bONasxR18tavPvmoTz7qk0+bPvHyWFmKfhndyYZtXGuWok7qk4/65KM++ahPPuqTj/rkU65//xn+PX/y7GWgPt16u7xO1u6l8e8L6E6Wol9Gd7JhG9eapahTsU8v9Cn/+bj6xMd7HusTq8uGbawuG7bRnSxe+uu41mzYxrVmKeqkPvmoTz7qk4/65KM++ahPPuqTj/rkoz75lOtPz4N35/xCWerTrfF58OT1otWnW+Pz4IP6dOGt/+/sE9eaxUuXqE8z8dIl6tNMvHSJ+jQTL13y9T7xxlHZsI3VZcM2VpcN21hdFna4AK41G7ZxrdmwjWvN4qVL1KeZeOkS9WkmXrpEfZqJly5Rn2bipUvUp5l46ZJqn3g6HKhPpnxYeNBvn7jWbNjGtWbDNq41G7ZxrVnYYVGtT5enwyIiIiIiIiLygx33h/jv5HXH5cbLeHq52lQxNCe8cMEuvGe3mIY2HWKbJsPEe6D/WLRh6sgchV9iXlR+1/kTlMo/vAxz9Poa2jVSm1zUJhe1yUVtclGbXNQmF7XJRW1yUZtc1CYXtclFbXJRm1zUJhe1yUVtclGbXNQmF7XJRW1yUZtc1KYbb+HIymB6zFdtuhGO0x12u8P4An0DtekGB8fP5/3kJR/D+5xvBiesjNj8PGOawmtcnKd/RLCtaaI7IzY/r1T+0J/wFymvb7tfC74w5neiOyM2P69Y/n5/igfH4585JWqTi9rkoja5qE0uapOL2uSiNrmoTS5qk4va5KI2uahNLmqTi9rkoja5qE0uapOL2uSiNrmoTS5q0w2O+p6mp7CqTTc46qs2ZaXyOep7CsehLtJR38NG/qE7o+vvP/yPMU28s0E+jVXTdIOjvgO1CcXyw/+2w2H4T8fXA7XJRW1yUZtc1CYXtclFbXJRm1zUJhe1yUVtclGbXNQmF7XJRW1yUZtc1CYXtclFbXJRm1zUJhe16cblXN/dngMsA7XpRjjqGw5k/rochxqoTTeGUYpvQH5Wmy6MaQpHfYcPkzadTqf3zaA7o3CE+0tKbRqaQ380TSiWH8/1Def5qk3wlq82uahNLmqTi9rkoja5qE0uapOL2uSiNrmoTS5fbxNvH5+xvQW6M2Lz89QmF7XJRW1yUZtc1CYXtclFbXJRm1x+Tpu41lEMepXK56jvr3jEDmrTjctRX7VpVCr/ctR3/5m+DtSmGxz1TZ/hI5wczDHV57C6jO0t0J1R2Ma1jjie61NqUz7qO2kTH5/H6jK2t0B3RmEb1zqKQa9i+U3O9WV1GdtboDujsI1rHcWgl7d8tclFbXJRm1zUJhe1yUVtcmnTpv+upeiX0Z1R2Ma1jmLQS21yUZtc1CYXtclFbXJRm1zUJhe1yUVtclGbXNQmF7XJRW1yKZa/38fjT+0PGdCcLEW/jO6MwjaudRSDXqXyX3a7c3pv0dZHfWlOlqJfRndGYRvXOopBr1L5+XCm2oRS+UNzUpuYqeDr5/qyumzYRnOyFP0yujMK27jWUTqc62RMU/xTi3geKzRNN07hD3cOr4fhPmqkNrk81iZWNwrbWF02bKM5WQgugKsdhW1c6ygGvdQmF7XJRW1yUZtc1CYXtclFbXJRm1zUJhe1yUVtclGbXNQmF7XJRW1yUZtc1CYXtclFbXIpls9R393TZ2eyulHYxuqyYRvNyUJwAVztKGzjWkcx6FUqn6O+by9PHxxndaOwjdVlwzaak4XgArjaUdjGtY5i0KtU/njUV226KJU/HvWdtumhc31Z3ShsY3XZsI3mZCG4AK52FLZxrSOO5/oY05ROsNc0XZTK56iv2pR5y/8728S1ZmFjido0EzaWqE0zYWOJ2jQTNpaoTTNhY4naNBM2lqhNM2FjyZfb9Oda2MjqRmEbq8uGbSwuC8EFcLWjsI1rHYVtXGsWNpaoTTNhY4naNBM2lqhNM2Fjido0EzaWqE0zYWOJ2jQTNpaoTTNhY4naNBM2lqhNM2Fjido0EzaWqE0zYWOJ2jQTNpbU2nQ5+BuoTZZ8yu9AbbLkU34H3baJa83CRq52FLZxraOwjWvNwsaSSpvGg7/Bh4XFZWEjqxuFbawuG7axuCwEH8O1ZmEjVzsK27jWUdjGtWZhYxFtKBgP/krN6fIO7SIiIiIiIiIiIiIiIiIiskVv+5fd7nU/eTns3dtx+rLPIm5pcl73k7+3OPIu2yKPOaR7pdPkTwvP//CJyGPeLtM0PtSd9/mtMjL+nkx+KubgjnRPlO+Pfk0f8zLv7uSv5L75T/tBfGOa8Gg3/3k80zT9aAvf/JqmH03TJMvRNMlyNE2yHE2TLEfTJMvRNMlyNE2yHE2TLEfTJMvRNMlyNE2yHE2TLEfTJMvRNMlyNE2yHE2TLEfTJMvRNMlyNE2yHP/Nf9xPX6j/LZx0cHuur6bpR/Pe/L9mZ0CdCoMUaZp+NOfNfzrGu6XL2Znmeb6apnZ4LwYbuRU5b37OHOfD2zGeWXe8namPj5M0wszYyK3IOU3xJVLyq1qk+6bZa1wkum9qh5mxkVuR9+Y/pFfcGcYnnOv7tj+z6YqmqR1mxkZuRQvf/JqmdpgZG7kVaZo2g5mxkVuRpmkzmBkbuRVpmjaDmbGRW5GmaTOYGRu5FWmaNoOZsZFbkaZpM5gZG7kVaZo2g5mxkVuRpmkzmBkbuRVpmjaDmbGRW5GmaTOYGRu5FWmaNoOZsZFbkaZpM5gZG7kVaZo2g5mxkVuRpmkzmBkbuRVpmjaDmbGRW5GmaTOYGRu5FWmaNoOZsZFbkaZpM5gZG7kVaZo2g5mxkVuR++Z/O+4/x3N9D/vhi33h/Q41Te0wMzZyK/Le/L+O4d98ru/NuU+JpqkdZsZGbkXOm/90jKdlXs71PWiavh8zYyO3IufNPz/XN/k1eZGLi3Cu7yGd98mHgT5b4LP3++f6vp/e3/MFou/97MlzfZPCqxHovqkdZsZGbkXem39yru/nYXcO90qldx3XNLXDzNjIrWjhm1/T1A4zYyO3Ik3TZjAzNnIr0jRtBjNjI7ciTdNmMDM2civSNG0GM2MjtyJN02YwMzZyK9I0bQYzYyO3Ik3TZjAzNnIr0jRtBjNjI7ciTdNmMDM2civSNG0GM2MjtyJN02YwMzZyK9I0bQYzYyO3Ik3TZjAzNnIr0jRtBjNjI7ciTdNmMDM2civSNG0GM2MjtyJN02YwMzZyK9I0bQYzYyO3Ik3TZjAzNnIrct/8b8fP6fv67t7On2c+ndA0tcPM2MityHvzX871vZym8nY8nDVN34qZsZFbkfPmH8/15d7pdDztNE3fi5mxkVuR8+bnJN/xzPHjcB9VnqZ4zufhdHqXhTEzNnIrOb0/ea7vYY+bU8d139QOM2MjtyLvzT8/1zfSI933YmZs5Fa08M2vaWqHmbGRW5GmaTOYGRu5FWmaNoOZsZFbkaZpM5gZG7kVaZo2g5mxkVuRpmkzmBkbuRVpmjaDmbGRW5GmaTOYGRu5FWmaNoOZsZFbkaZpM5gZG7kV/YXT9O9dBDeGmbGRW5GmaTOYGRu5FWmaNoOZsZFbkaZpM5gZG7kVaZo2g5mxkVuRpmkzmBkbuRVpmjaDmbGRW5GmaTOYGRu5FWmaNoOZsZFbkaZpM5gZG7kVuW/+2bm+b+fy2/pqmhpiZmzkKNJGrgHvzX99ru9g/taHiaapHWbGRo4ibeQacN781+f6Dk7pFLs5TVM7zIyNHEXayDXgvPmvzvWNjsX7pniu76on+9KzCoIbw8zYyFGkjdzi/sr39aVnFQQ3hpmxkaNIG7kGvDf//FzfY3jAO+vnpm/FzNjIUaSNXAML3/yapnaYGRs5irSRa0DTtBnMjI0cRdrINaBp2gxmxkaOIm3kGtA0bQYzYyNHkTZyDWiaNoOZsZGjSBu5BjRNm8HM2MhRpI1cAz94mv67K+V6wczYyFGkjVwDmqaKlOsFM2MjR5E2cg1omipSrhfMjI0cRdrINaBpqki5XjAzNnIUaSPXgKapIuV6wczYyFGkjVwDmqaKlOsFM2MjR5E2cg1omipSrhfMjI0cRdrINaBpqki5XjAzNnIUaSPXgKapIuV6wczYyFGkjVwDmqaKlOsFM2MjR5E2cg1omipSrhfMjI0cRdrINaBpqki5XjAzNnIUaSPXgKapIuV6wczYyFGkjVwDmqaKlOsFM2MjR5E2cg1omipSrhfMjI0cRdrINeC9+eO5mIfLyZm/zmFLp+9PR88qUo6RqUi5XjAzNnIUaSPXgPPmfzvenk/3WnghAk1TO8yMjRxF2sg14Lz5OdeXD9EpDdhcD+/rS88qUo6RqUi5XjAzNnIUaSO3uAfO9b0+c/xX4dxM3Te1xMzYyFGkjVwD3mlKZ4mP54q/ft68QXSkaWqHmbGRo0gbuQbcN398n/Fwd/Q63D+dwxefhR/DNU3tMDM2chRpI9fAwjd/y2miZzZy9Kwi5RiZipTrBVXayFGkjVwDmqaKlOsFVdrIUaSNXAOapoqU6wVV2shRpI1cA5qmipTrBVXayFGkjVwDmqaKlOsFVdrIUaSNXAOapoqU6wVV2shRpI1cA5qmipTrBVXayFGkjVwDmqaKlOsFVdrIUaSNXAOapoqU6wVV2shRpI1cA5qmipTrBVXayFGkjVwDmqaKlOsFVdrIUaSNXAOapoqU6wVV2shRpI1cA5qmipTrBVXayFGkjVwDmqaKlOsFVdrIUaSNXAOapoqU6wVV2shRpI1cA5qmipTrBVXayFGkjVwDmqaKlOsFVdrIUaSNXAOapoqU6wVV2shRpI1cA5qmipTrBVXayFGkjVwDmqaKlOsFVdrIUaSNXAPem39+rm8852DyNpojTVM7VGkjR5E2cg04b/7bc31nb8o60jS1Q5U2chRpI9eA8+a/Pdd3etpv1vJ9femZjRw9q0g5RqYi5XpBlTZyFGkjt7gvnOur+6bvRpU2chRpI9eAd5quzvXVNH0/qrSRo0gbuQbcN//sXN9T+GK/P6ZvTWia2qFKGzmKtJGjyAqCfgvf/JqmdqjSRo4ibeQosoKgn6apIuV6QZU2chRpI0eRFQT9NE0VKdcLqrSRo0gbOYqsIOinaapIuV5QpY0cRdrIUWQFQT9NU0XK9YIqbeQo0kaOIisI+mmaKlKuF1RpI0eRNnIUWUHQT9NUkXK9oEobOYq0kaPICoJ+60/Tn7sI0jMbOXpWkXK0rCLlekGVNnIUaSNHkRUE/TRNFSnXC6q0kaNIGzmKrCDop2mqSLleUKWNHEXayFFkBUE/TVNFyvWCKm3kKNJGjiIrCPppmipSrhdUaSNHkTZyFFlB0E/TVJFyvaBKGzmKtJGjyAqCfpqmipTrBVXayFGkjRxFVhD00zRVpFwvqNJGjiJt5CiygqCfpqki5XpBlTZyFGkjR5EVBP00TRUp1wuqtJGjSBs5iqwg6Kdpqki5XlCljRxF2shRZAVBP01TRcr1gipt5CjSRo4iKwj6aZoqUq4XVGkjR5E2chRZQdDvuWm6OvM30zS1Q5U2chRpI0eRFQT9npqm0rv8JpqmdqjSRo4ibeQosoKg31PTVHiXX2iaHkaRFQSp0kaOIm3kKLKCoN9z901pjAonaH5+yE/2P+bgAW+c8zs581fkefFk39KbjouIiIiIiIiIiIiIbMNu939/X98nBmIizAAAAABJRU5ErkJggg==;" vertex="1" parent="1">
          <mxGeometry x="1327.0015628487724" y="79.18719918387274" width="310" height="216.84" as="geometry" />
        </mxCell>
        <mxCell id="xVzUcxpCqJK35BR_aFPY-5" value="" style="shape=image;verticalLabelPosition=bottom;labelBackgroundColor=default;verticalAlign=top;aspect=fixed;imageAspect=0;image=data:image/png,iVBORw0KGgoAAAANSUhEUgAAAlEAAAGrCAMAAAGgRAKYAAAAAXNSR0IArs4c6QAAAARnQU1BAACxjwv8YQUAAABvUExURf////n5+WxsbFlZWcXFxfz8/IuLi42NjdfX12BgYPHx8enp6WRkZKurq7+/v1xcXHp6etvb26Ojo3l5efj4+MLCwvX19WhoaHh4eAAAAOLi4sAAAACwUNbW1q6urpubm9nZ2QBwwDg4OCAgIAAAAHdFyfMAAAAldFJOU////////////////////////////////////////////////wA/z0JPAAAACXBIWXMAABcRAAAXEQHKJvM/AAAd1UlEQVR4Xu3dYW8iO7aFYSQQaiESiW99NBNFk/v//+O1XS/EpqtY22mq2ie9nhmlaWfF2Jt90iFFFbu/x4E/LftPxu3f9fy5/psxUnvZ7V/O3NYez5X95E9NzxXnufrIuS7PehxfXne7Pbe1x3P1+TfM9b+E4S/Zcq5Lx/d7NVcPz3VnCi+aPr3NXKd97onLj6KEp5tzyqcvZa63PNfb5DLNdKeEuT1j+nSZ619Vr0YdnlF/+o/NlcN36ftPM3yzr79P3Ic752rchz3XinOlnwtP1c+F9+HOde3rnwvvw51zNe7DnmvVuZ73OL4c9u/xnwttSJfzLn+P+Gf62zP8q6cqDS/8oamm/wx/lf4T3KdnaM+Y6lj+/5Sp4KkmW02VH77kGVPtz0/rK3yXqWb+pZwMNlV6Xpafmn3fDWLsqXJWPN/cYqprM9RP5bk9o3y2TFWe6PNMv32iP9gGsdpUJTvnz081l3041d13ht+ZCp5qstVU+YlX9a/z70yVfmaonwL8zlTwVJOtpjqemp/bf2cqnk2YFaUXLruX8pdR7C95WfvdZfr107Xvx+JVxT11VeXbX8bfv2ytVZXvvQWf6zLKqi67U/7IkSLXKs6rivOq4kZZ1fRrgvK6guSfy/NMv7bILtPLEIrLIX9u7sO0gjl+BOO2WFV5JpIR07yqB6s6v+5OH/njR/nrKLXKP7afdq88m/Aj6FVVWNPTV8WsCQNd+NJvs6qX/e4l/+jOb3lGqdV04PLMa1P8CH7jVTFrnjeIL/WqAvjSr6xq+o6w8K8zsybNqpg1ITePL/3CqvaXw3GfPs7/ro9Zk21Xdcer8qoqfOn3WVV6Ip3/G5y+QbhWXlWNL/WqJuTm8aXfZ1XlO8Pu+p3h458/Z1qBmdkvzulb1fsxHxGYnkgM4ZxPtDvm34n+8UVV3z/z6X/HQ/qBj7//OUN+U/eiov7iRfEDVcLAY15UwsBj2y+Kn4fzT8RLvKikc1H51UP5lavX3zs+EytKOhdV/uk77nfvK/zjx4qSzkWVYyPH/DF+SZcoVpS40R9jRYkX9RgrSryox1hR4kU9xooSL+oxVpR8h0W95J8T9vlp+0D/9u3zjyz51578lJBfavgsrCi5vLGk//43f2L+RY6fi0o1et3t808JuVrPxYoSN/pjrCjxoh5jRcn4i+I4SEIOXlTiRT3GipJvsaj0T94+/756hd8Os6Kkc1Hn/A/yS/642dN2VpSQQ72o9A/xMf+Kf6BFrYkVJV7UY6wo8aIeY0WJF/UYK0qeuygmzdP240sTL+oxvjT5Douafrmfn4jO/nKfSTdeVHna/nLZ3562c7EjMOmjyyIt40uT6mn723TxpGK6ghKqp+35Cfu0nNlfcDDpxpUSmNSLkpjUi5KYdNhFMWnC5yS+NPGiHuNLEy/qMb402WRRTHo/7R2+NOlcVHmGvM8fZ58hM+nmi8o/spzz5dOngRaTbryotJbDPv/OZf5XCUy69aIeY1IvSmJSL0piUi9KYlIvSmJSL2p62r4vx4/V03YmTVZfVHnavvt82n6HSTdeVHlNXjH71ntMuvGiBCb1oiQm9aIkJvWiJCb1oiQm9aIkJt14Ufk1eS/lksDqV9ZMmqy+qOmnhM9X7nNW8J/wf2UBWfpJKq0q/zxVvaGemZmZbe90/c3+/rgrlwg+7179z/OcVKZyffdj+t9lv7/kv1S/g/nJzzt/mbnfQh1vvxEqf5zzT8bVD8fhH+i/ly9s25WKcqWiXKkoVyrKlYoatlL8nqnGZ57BlYpypaL+gkrxG99aiXdypaJcqai5bZ930+8O3tPzvnL7pXmG7ErdpOrkq8SmP0qlLi/pL3Wl8uUMRkR1anmY6tRKvNNsg+z3l6mrjtPty77+lYN7KsqVinKlolypKFcqypWKcqWiXKkoVyrKlYpypT6dyzsNnvYfp93lIz+T2U/vSTpxpW54hpyfG5fXJZzuniHz53CoTi0PU51aiXdaqNRrfuEGR9uPJ//WJfnCtl2pKFcqypWKcqWivkmlOIWhlocXuVKVPLzIlark4UWuVCUPL3KlKnl4kStVycOLXKlKHl40t+30NK+8YVB+tpdv/1teZU11anmY6tTyMNWp5eFFc9tOz4Z5T9ZyyaDLe/vK/X8ud9c+HAXVqf24VFdU/JQvo0h1auXyirMWjrZf8tkgr6/nXJ9yO/1t+t1C4Z6KcqWiXKkoVyrKlYpypaJcqShXKurxl7DEGp9ZHXdXy8NUp5aHqU4tDy9ypSp5eJErVcnDi1ypSh5eNLftfAw5v8a6PO/LT/h6jiGzxBqfWR13V8vDVKeWh6lOLQ8vWqhUuQoA5Tmf7n6XwJ/zWGKNz6yOu6vlYapTy8NUp5aHF81uO79a/3A47vepp/JLXfI1mz+5UlGuVJQrFeVKRblSUa5U1JcqxRJrJf5M3F0tD3N3tTxMdWp5eJErVcnDi1ypSh5e5EpV8vAiV6qShxfNbZvr5L3sLj+n2+fd63RMuXhmpVhiLQ9/DXdXy8PcXS0Pc3e1PLxobtupTNPR9qlkl/e7V+4/PNrOEmtpdPYE8zTMEmtfP5TP3dUuh7enHG1v3uPw0/U6ebk65fa5/H7hyj0V5UpFuVJRrlSUKxXlSkW5UlGuVJQrFeVKRblSUa7UTT7aXl5VnZ8eP+loO0us5WGWWMvDX8Pd1fIwd1fLw9xdLQ8vWqjU9LuEqTy/HG2/PPplAkus5avMscTa2+Uy94T+4ewPcXe1NNns7xLm7zq/QH/BYfk6eYfDKR9tP+SLSvRcJ48l1vIwS6zlYZZYy8Nfw93V8jB3V8vD3F0tDy96vO1ZrlSUKxXlSkW5UlGuVJQrFeVKRblSUa5UlCv1abpO3m6Xr46Xb586rpPHEmt5mCXW8jBLrOXhr+HuanmYu6vlYe6ulocXzW27foZcbj/h9egssZaHWWItD38Nd1fLw9xdLQ9zd7U8vGihUrffuuTbd+9OYGZmZmZmZmZmPc5cT+L15/RLFk6fsXvXX0L9zG9vmP68/ZbKGvmiG7k+x3ymTH6RS/rLdCGOyT9/J3Zfub5E6mU6t2h3vC8Uf/5d5nZ9u14uhSqnYH1yoa7KhVum//jSf3rpO1R+rdknFyrIhQpyoYJcqCAXKsiFCnKhglyoIBcqyIUKGrVQvOCnwaeewIUKcqGCXKggFyrIhQr6/oXiZa6N6Qu6uFBBLlSQCxXkQgW5UEFzu75ecDIfUs+37w6pu1BX9SH1fLuc7FE+U7hQyOcNTUf1jtPt9Jd/w5FiatNIw9SmMX1Bl5ld14fUT7lQqaOmk64m+TIkI6I2jTRMbRrTF3SZa4/6kHq+/S85pE5tGmmY2jSmL+gyt+tydZbpPz5u/ysOqVObRhqmNo3pC7p8YdcuVJALFeRCBblQQS5UkAsV5EIFuVBBLlSQCxXkQgW5UEEuVJALFeRCBblQQS5UkAsV5EIFuVBBLtTNdFXJ43QA5uN0u+zkxIW6uh3XO1w4Ero7nspA4UKhHB0ut3JHTX80R4r5czTUppGGqU1j+oIuM7u+ns6/253zcc/3w32h8vtcJIN9mHtjj//8mH2T0PzOHr3mOurzKqXlv8Dz3QUi3FFX+1yX9GF3vOQPp4NfH/WlXbtQQS5UkAsV5EIFuVBBLlSQCxXkQgV9j0LxbguNMs0CF6pSplngQlXKNAtcqEqZZoELVSnTLHChKmWaBS5UpUyzwIWqlGkWuFCVMs0CF6pSplngQlXKNAtcqEqZZoELVSnTLJjddXVIvdz+jofUqU2jTLNgbtf1IfV8+1seUqc2jTLNgpld14fUZ0++5s/RUJtGGqY2jTRMbRplmgUzu64PqZfb6S/3Z6n/GBC1aSwdUn97ozaNNDzvclCH1Mvtb3lIndo0yjQL5nZdH1L/SLe/5SF1atMo0yz4wq5dqCAXKsiFCnKhglyoIBcqyIUKcqGCXKggFyrIhQpyoYJcqCAXKujhl7DABp9aG/fWSMPUppGGqU2jTLPAhaqUaRa4UJUyzQIXqlKmWeBCVco0C1yoSplmgQtVKdMscKEqZZoFc7veT1fIP+4+pgN8PVfIZ4ENPrU27q2RhqlNIw1Tm0aZZsHcrm8HQA+ncqPnCvkssMGn1sa9NdIwtWmkYWrTKNMsmNl1dUg93dhPbzofPaTOAht8am3cW2PdQ+rXQr1Px9HLm85HX6TBAht8am3cWyMNU5tGGqY2jTLNgrld87Kf1/SfYNb1pvMssMGn1sa9NdIwtWmkYWrTKNMsmNs1V8hP/9Ud04fy31/4CvkssMGn1sa9NdIwtWmkYWrTKNMseLjreS5UkAsV5EIFuVBBLlSQCxXkQgW5UEEuVJALFfSVQrHAxvQFz8O9NdIw99ZIw9SmUaZZ4EJVyjQLXKhKmWaBC1Up0yxwoSplmgUuVKVMs8CFqpRpFrhQlTLNAheqUqZZ4EJVyjQL/myhWGCjTPMV3FsjDXNvjTTMvTXKNAvmds2bzh/z0b3eN51ngY00zAIbaZgFNso0X8G9NdIw99ZIw9xbo0yzYG7Xt0Pqr6fbm85HzylmgY00zAIbaZgFNso0X8G9NdIw99ZIw9xbo0yzYGbX+ajwVKj9dDv95TcPqc+/ofmPCwtsfPkMeO6tcbk85ZD625s6pN593QMW2EjDLLCRhllgo0zzFdxbIw1zb400zL01yjQL5nb9s7w8Yzqkng+vP+GQOgtspGEW2CjTfAX31kjD3FsjDXNvjTLNgrld3w6pfxy733SeBTbSMAtspGEW2CjTfAX31kjD3FsjDXNvjTLNgoe7nudCBblQQS5UkAsV5EIFuVBBLlSQCxXkQgW5UEEuVJALFeRCBblQQS5UkAsV5EIFuVBBLlSQCxXkQl1xSP2Qr4ufD/D5kHoyt+vrIfXrWdg+pJ7M7Pp2SH266vuvZ6nz5ywW2EjDLLCRhllgo0zzFdxbIw1zb400zL01yjQLZnZ9O6ROdX45Sz2/B/sSFtj48WP2BQApzQIbX3hD+An31vjxNv+yh/m7nuaZN9ceHFK/FcqH1JO5XX+epX5OH1LZPnxI/fGu57lQQS5UkAsV5EIFuVBBLlSQCxXkQgW5UEEuVJALFeRCBblQQS5UkAsV5EIFuVBBLlSQCxXkQgW5UFen6U3nd8dXbne86TwLbKRhFthIwyywUab5Cu6tkYa5t0Ya5t4aZZoFc7vOp8emP875SHG+/Z5qFn3TeRbYSMMssJGGWWCjTPMV3FsjDXNvjTTMvTXKNAtmdn170/nLq0++vpnZ9e0K+ak608sP7gr1d2L3ldubzueOyrfTX+pXs9hVedP59D18aq3Xy6V9fZSZmZmZmZmZmZmZmZmZmX1f5/1+f+B2dtzns9UvaTTJA/cBswfe84ukdsfysTgf8iUQUkfxio1fAmYPnKbvPpfryxJP50u5qMato24Bf5eyiMPUKfyRGueUvh/drtHyvn+l166BO7xOzf4OPOoPnfb5DXR2r9N3pMP0w9P+9kLq48/LuQ7ci92JfQvBB/uSW6r0y+v121D5HpVfp1+uvnW4BWa4o/4imzzY7qi/iDvKnssdZc/ljrLnckfZc7mj7LncUfZc7ih7LneUPZc7yp7LHTUiLrujkB6LO2pEdIxCeizuqBHRMQrpsbijRkTHKKTH4o4aER2jkB6LO2pEdIxCeizuqBHRMQpprryqkF6bO2pEdIxCmo5RSK/NHTUiOkYhTccopNfmjhoRHaOQpmMU0mtzR42IjlFI0zEK6bVFH+zTef/RvC3Fz3KW+uf4L4GKO6oTHaOQpmMU0msLPtj3J6GfOEv9Nv7wLHV3VCc6RiFNxyik1xZ7sC/ncpLe7ST061nqt3HO4ls4S90d1YmOUUjTMQrptcUe7Luz1A/nU/pnL3fUdfy9Ddz555+L9aBjFNJ0jEJ6bbGOWjpL/TZ+8Fnqz0THKKTpGIX02oIP9udJ6K/XH7/Lz1G3cZ+l/kx0jEKajlFIr22TB9sd1YmOUUjTMQrptbmjRkTHKKTpGIX02txRI6JjFNJ0jEJ6be6oEdExCmk6RiG9NnfUiOgYhTQdo5BemztqRHSMQpqOUUivzR01IjpGIU3HKKTX5o4aER2jkKZjFNJrc0eNiI5RSNMxCum1uaNGRMcopOkYhfTa3FEjomMU0nSMQnpt7qgR0TEKaTpGIb02d9SI6BiFNB2jkF6bO2pEdIxCmo5RSK/NHTUiOkYhTccopNfmjhoRHaOQpmMU0mtzR42IjlFI0zEK6bW5o0ZExyik6RiF9NrcUSOiYxTSdIxCem3uqBHRMQppOkYhvTZ31IjoGIU0HaOQXps7akR0jEKajlFIry34YJf3AD1cT6x6zyfnnfObFR/yh6wN3HFHdaJjFNJ0jEJ6bbEH+zRzgmf5y+3d+X0G6DPRMQppOkYhvbbYg313lvruuN/n70l5JMsngMqz1A/5FGZ/CH2gY5TLj8vlLX6Weoou3uPzPgS/R02d0l4o41wu95Odj7OBG3+P6kTHKKTpGIX02oIdNV3Gp72YT9VR73zKV/t5DjpGIU3HKKTXFn2wyz9v+Yek149D+la0/9iX5km39tWt2Z+i3FHd6BiFNB2jkF7bJg+2O6oTHaOQpmMU0mtzR42IjlFI0zEK6bW5o0ZExyik6RiF9NrcUSOiYxTSdIxCem3uqBHRMQppOkYhvTZ31IjoGIU0HaOQXps7akR0jEKajlFIr80dNSI6RiFNxyik/xdDup87akR0jEKajlFI0zEK6X7uqBHRMQppOkYhTccopPu5o0ZExyik6RiFNB2jkO7njhoRHaOQpmMU0nSMQrqfO2pEdIxCmo5RSNMxCul+7qgR0TEKaTpGIU3HKKT7uaNGRMcopOkYhTQdo5Du544aER2jkKZjFNJ0jEK6nztqRHSMQpqOUUjTMQrpfu6oEdExCmk6RiFNxyik+7mjRkTHKKTpGIU0HaOQ7ueOGhEdo5CmYxTSdIxCup87akR0jEKajlFI0zEK6X7BB3vpLPXbuM9SfyY6RiFNxyik6RiFdL/Yg710lvpt3O9T/FR0jEKajlFI0zEK6X6xB3vpLPXb+Pv03WnxLHVuWAwdo5CmYxTSdIxCul/we9TUKb+cpX4bf5kL3OTrHhwulx/+X/B/dIzyI2ffotc9eMtXJri80THKlO7BVwQ7auks9dv4XODG36M60TEKaTpGIU3HKKT7RR/shbPU881p3GepPxEdo5CmYxTSdIxCut8mD7Y7qhMdo5CmYxTSdIxCup87akR0jEKajlFI0zEK6X7uqBHRMQppOkYhTccopPu5o0ZExyik6RiFNB2jkO7njhoRHaOQpmMU0nSMQrqfO2pEdIxCmo5RSNMxCul+7qgR0TEKaTpGIU3HKKT7uaNGRMcopOkYhTQdo5Du544aER2jkKZjFNJ0jEK6nztqRHSMQpqOUUjTMQrpfu6oEdExCmk6RiFNxyik+7mjRkTHKKTpGIU0HaOQ7ueOGhEdo5CmYxTSdIxCup87akR0jEKajlFI0zEK6X6jdxS1U0h/F+xKIU3HKKTpGIV0P3fUiNiVQpqOUUjTMQrpfu6oEbErhTQdo5CmYxTS/dxRI2JXCmk6RiFNxyik+7mjRsSuFNJ0jEKajlFI93NHjYhdKaTpGIU0HaOQ7ueOGhG7UkjTMQppOkYh3S/6YJ/O+4/bOein48d+X94B9JBG9x/n013gjjuqE7tSSNMxCmk6RiHdL/hgv/96Ot7LdN0DTqiaCXxyR3ViVwppOkYhTccopPvFHuzL+ddTht/zd6YDHbXaO19TO4X0d8GuFNJ0jEKajlFI94s92PfXPUiO+VvU5H3/ehHXPfjyWerUTqm/5Bv8j10pP7renX+ss9TLdTOqS6+8Nq1z/HlZ69os1E4h/V2wK4U0HaOQpmMU0v2CD/Yht1Tpl3yWevlbcczfmo77/O/dNTDDHdWJXSmk6RiFNB2jkO73Gw92nDuqE7tSSNMxCmk6RiHdzx01InalkKZjFNJ0jEK6nztqROxKIU3HKKTpGIV0P3fUiNiVQpqOUUjTMQrpfu6oEbErhTQdo5CmYxTS/dxRI2JXCmk6RiFNxyik+7mjRsSuFNJ0jEKajlFI93NHjYhdKaTpGIU0HaOQ7ueOGhG7UkjTMQppOkYh3c8dNSJ2pZCmYxTSdIxCut/36ihqp5AeF7tSSLMrhTQdo5Du544aEbtSSLMrhTQdo5Du544aEbtSSLMrhTQdo5Du544aEbtSSLMrhTQdo5Du544aEbtSSLMrhTQdo5Du544aEbtSSLMrhTQdo5Du544aEbtSSLMrhTQdo5Du544aEbtSSLMrhTQdo5Du544aEbtSSLMrhTQdo5Du544aEbtSSLMrhTQdo5Du9zd3FLVTSG+JXSmk2ZVCml0ppPtFH+zT+WM/c5b653gTuOOO6sSuFNLsSiHNrhTS/YIP9vUk9NtZn5xTfBufCXxyR3ViVwppdqWQZlcK6X6xB5uz1JtThvN1D27jLzOBT+6oTuxKIc2uFNLsSiHdL/Zg0yn1ZQ3yaZ/Xgcv+/ddAZauz1N+onfI2pamdMqU3/R+7Un5M54WzK2Xts9SLt988S/12cvphjLPUqZ1CmtoppLfErhTS7Eohza4U0v2CD/bSWeq38THOUqd2Cmlqp5DeErtSSLMrhTS7Ukj3+40HO84d1YldKaTZlUKaXSmk+7mjJNJbYlcKaXalkGZXCul+7iiJ9JbYlUKaXSmk2ZVCup87SiK9JXalkGZXCml2pZDu546SSG+JXSmk2ZVCml0ppPu5oyTSW2JXCml2pZBmVwrpfu4oifSW2JVCml0ppNmVQrqfO0oivSV2pZBmVwppdqWQ7ueOkkhviV0ppNmVQppdKaT7uaMk0ltiVwppdqWQZlcK6X7uKIn0ltiVQppdKaTZlUK6nztKIr0ldqWQZlcKaXalkO7njpJIb4ldKaTZlUKaXSmk+7mjJNJbYlcKaXalkGZXCul+7iiJ9JbYlUKaXSmk2ZVCup87SiK9JXalkGZXCml2pZDu546SSG+JXSmk2ZVCml0ppPu5oyTSW2JXCml2pZBmVwrpfu4oifSW2JVCml0ppNmVQrqfO0oivSV2pZBmVwppdqWQ7ueOkkhviV0ppNmVQppdKaT7RR/su5PQT8ePcnpV/V7qPkv9adiVQppdKaTZlUK6X/DBbk9CP+1fONfz+s7Xc6exf3JHdWJXCml2pZBmVwrpfrEH+9ez1Hmr6+u788+dxv7JHdWJXSmk2ZVCml0ppPvFHuxfz1Kve6e8l/p9oJbPUp/OU+9G7ZQcvYTPUr+85cVcqJ3yNsXLcjbCrpSy57fwufkTdqWQ7pSqGuuoX85Sb3tnmPdSp3YKaWqnkN4Su1JIsyuFNLtSSPcLPtjtWeploPwx2HupUzuFNLVTSG+JXSmk2ZVCml0ppPv9xoMd547qxK4U0uxKIc2uFNL93FES6S2xK4U0u1JIsyuFdD93lER6S+xKIc2uFNLsSiHdzx0lkd4Su1JIsyuFNLtSSPdzR0mkt8SuFNLsSiHNrhTS/dxREuktsSuFNLtSSLMrhXQ/d5REekvsSiHNrhTS7Eoh3c8dJZHeErtSSLMrhTS7Ukj3c0dJpLfErhTS7Eohza4U0v3cURLpLbErhTS7UkizK4V0P3eURHpL7Eohza4U0uxKId3PHSWR3hK7UkizK4U0u1JI93NHSaS3xK4U0uxKIc2uFNL93FES6S2xK4U0u1JIsyuFdD93lER6S+xKIc2uFNLsSiHdzx0lkd4Su1JIsyuFNLtSSPdzR0mkt8SuFNLsSiHNrhTS/dxREuktsSuFNLtSSLMrhXQ/d5REekvsSiHNrhTS7Eoh3c8dJZHeErtSSLMrhTS7Ukj3c0dJpLfErhTS7Eohza4U0v3cURLpLbErhTS7UkizK4V0v+CDXc7HO9yua3DY7znl8zpezuj7DLTcUZ3YlUKaXSmk2ZVCul/swT79coLndAbobdzvU/xU7Eohza4U0uxKId0v9mBzvmd1avp08zbOe6lXgdo/X0ftFNLUTiFN7RTSW2JXCml2pZBmVwrpr+BRf+g0dUp1ajrfo67jL9OVNBaue2B253TkYj7lbxnfjW7jvwTMHko/i3+c8w9J6Wem9K2oyBeLyj+jlx+ebjfMzMzMzMzMzMzM/qzd7v8BR2VfgQg8VUsAAAAASUVORK5CYII=;" vertex="1" parent="1">
          <mxGeometry x="998.0031588309153" y="80.00443655831475" width="300" height="216.02" as="geometry" />
        </mxCell>
        <mxCell id="xVzUcxpCqJK35BR_aFPY-4" value="" style="shape=image;verticalLabelPosition=bottom;labelBackgroundColor=default;verticalAlign=top;aspect=fixed;imageAspect=0;image=data:image/png,iVBORw0KGgoAAAANSUhEUgAAAlEAAAGrCAMAAAGgRAKYAAAAAXNSR0IArs4c6QAAAARnQU1BAACxjwv8YQUAAAByUExURf////n5+WxsbFlZWcXFxenp6WRkZKurq9fX12BgYPHx8b+/v1xcXNvb26Ojo3l5efj4+Pz8/IuLi4qKinh4eAAAAI2NjeLi4gBwwMAAANbW1q6urpubm9nZ2QCwUPX19Xp6esLCwmhoaDg4OCAgIAAAAEL1PaoAAAAmdFJOU/////////////////////////////////////////////////8Ap3qBvAAAAAlwSFlzAAAXEQAAFxEByibzPwAAF5RJREFUeF7tnWFzokoTha3CMiktPpmtujeVul98//9vfKeHA2kJ0I0xWUmeZ3cNGc9Cz/Eo4jCy+x3sy7/GbmBD/FPQoigP4T7/OP5raPnjutbRres/49euq2m0kGB5XU/l36HtlmOW17UO1lUeR/3MsLyu8jg+NTyOju9b12F3ao5ajlle10v5d+4WEyyvax2sq7nv4/jC4+j5vnUdykP5Rc9HL57A3/1xXSPG4pF6fLeapxmLf8S67Dn09v5AjsWr1nUpf93ucSxeta4RYzHrGt1bHsfm6X6P44nDx82z5o0v/G0mnqWrD120OLWqNYxeHH7Zqi674yVvfFCVvbXJEqxqDb97VTyCV2xwVSf9zPFdVa3jd6+qPIIrHsTvqmodv3tVp13++D6s6upjGtN2YjVcE6zqCreqKe1vX9XVh9WfWdVp1/qn82dWNYJVLa7q6jn4mVWVhy//WSn8dGxM0g4wD9evEX+ZfXnb3uyaFz67gI1TX4EN/T5B9xx8Ks/B+3/aWncVhn4XqmmpqrY+B8vtFzwHVZNVVfdTlVRVX4lqoqoEqunHVNU982w/uO4zhwyqiUcwgWqiqgSq6cdU1T0H9zwHVRNVeVQTVSVQTTdU1T3zmqb52veiKqnAIziJaqKqBKrpx1TV7wcbPRvb5/uhmv799/lVJRVeX1XTP/+8XvFdnwmpJnKVQDVRVQLVdENV9sxr6n5w6jmotRaeW631v//ST1P916v/fI/noNZacN11vV1+EPRf7/4Iaq0FqorQWgtUpf1gO7cf1FoL7mnknkX/tO1+7u/X7Qe11gKPYITWWqCqCK218L1V6SjwrX8O/vl71O0DAEzRD1V2r1QPwbGUZKfbnHV6xV98EXObLkYdzSxNYn6MokZQ1DUUlYWislDUGL0fLqhBPHxR3b5veJdeb++DjhwKauhQRQU1iPdNd/s+u73/bkYVFdTQoYoKahBu0/2+TzOUv6ooHWMtHaPNb5qipBMUVaCoZVRRgaKWUUWFtUWVfczFXkAPX7ubUUm5omwH0x33PdAruhVlvHzxDlklEfRJVFGBopZRRQWKWkYVFShqGVVU+BFFlRf05lJuH2/f9/WHWCopX1R3y76vQzpBUQWKWkYVFShqGVVUoKhlVFFhdVHlldy+AOepO6p5iKLasoM5n21f81Cf5BWbzva3m2T/IEVdQ1HSCYoqUNQyqqhAUcuoosLPKKrs+8qL+enx9n12q32fzom9B6qo4E6N9efV6pzYjtb70e37Xtj3CekERRUoahlVVKCoZVRRgaKWUUWF1UWddk+H8uPh9n1P7rhP+y2hlZa917NWWtB9IfqvhXbtvs9smj3u00qv+lo6m0P/tXDfTGml46K00vFqR+i/FiiKoga0Uor6CEVJJx6+qHI0s589mtFKv7ko2/fZJeRmjvu00vmJxeN5kO9/1x73vXo/2uZUTGqn3yVopd/+8F1DUdIJiipQFEUNaKUUZZR9X/1W0kfb95W/+37f9/f4Xy2go71cyu1R+z4AAAD4Wxy661bWG9svH+vHxfCBtjhkzpztIvf2ZWflh7X16P3OL2MyK+UdcflrBtW7z+WdcffmuGP+Hf1P5pZe41QWnMqCU1lwKgtOZcGpLDiVBaey/Ayn9OGvR/dMM9nrw25vUw7rcZ8tj477cKrHLuJpzpTjvmNdLr9cHfe1j4lGDjy6Zwq549E900zmwx/32fJGjvvkjseaNd7isWa547HmWW7pNU5lwaksOJUFp7LgVBacyoJTWXAqC04NvL9H726eynt0d8F8nOrpx/t2uzc7UH47lV/qIbP4YycD1zOCH+rGnZs8UJrdlVsGrFnuePo1Td5M5qPZneyMs5Mlqdzs2m18liB3PNYsdzzWLHc81jzLLb3GqSw4lQWnsuBUFpzKglNZcCoLTmXBqQF/3GfLHPcVpnrtj/vq8ofjvsdE7nien1s3uXXgtajljseaZ9jHx32XssxxX+GWXuNUFpzKglNZcCoLTmXBqSw4lQWnsuDUQDnO6475zt3CQed8CpzqOeq470nnLJ7LL3a+Z8/GzvOUO567Hfe1dQpkWbBMNS92033PRAeZyoJTWXAqC05lwaksOJUFp7LgVBacyoJTA/64z5Y57itM9dof99Xl8XGffj4acsdjzXLHY81yx2PNs0z22h/37W35wnHfTb3GqSw4lQWnsuBUFpzKglNZcCoLTmXBqYH+uK87Na8b73Nv0m9xSiV6dM/9kDsea9bmPNYsdzzWPMtUr/vjvkId8Psw3qefk6hEjzWrRE+V3xNtzmPN2pzHmuWOx5pnmey1jvuaSx3qWzfepxI91qwSPdasEj3WfBvanMeatTmPNWtzHmue5ZZnEk5lwaksOJUFp7LgVBacyoJTWXBq4NjYFYN2L/YGtC4fGvcWHacGjsWW7mim6ZbLcd8XHc2oRI8134Y257Fmbc5jzdqcx5pnmXRqOELevdTl8kv6CFkleqxZJXqsWSV6rPk2tDmPNWtzHmvW5jzWPMtir2fAqSw4lQWnsuBUFpzKglNZcCoLTmXBqQEd9527EYfLkeO+wlSv34/7no51ofzjuG/Sqf64r7Nr9zIaGQUAAAAAAAAAgBX0VxO1m9Y+ZDlczT6GHn0IdbKvYq5GvZ+dAJ5iin0b8/ncvNj56O371zRXXv78StR7j534Y0bp082Dm+dgLH4g/GOZ6nVxyCZ+lKfemz37Dv1XpAuMGrDpHqfT7tDsu6kgde7/AEYlwagkGJUEo5JgVBKMSoJRSTAqCUYlwagkGJUEo5JgVBKMSoJRSTAqyQ8xSue5enTPJBjl0D2TYJRD90wy1Ws/rleXD9fXxtTPjSNzPLpnkqle27jefrfbdyMLu1N7Pa73sEbpXHyP7plC5nh0zyRTvS6mDON6tvw2Gq7SlWgeDpnj0T1TyByP7plkJlHDuJ4tP21kXE/meHTPFDLHo3smmer1+7je07Eub2RcT+Z4rFnTYDzWLHM81jzHZK/duF5droN7AxiVBKOSYFQSjEqCUUkwKglGJcGoJBiVBKOSYFQSjEqCUUkwKglGJcGoJBiVBKMGuq+NaptLs2sv9ulm971SAqN6nna787EYZTOG6g2fmU/32kZeSqQGo96/f6uCUT3FFI0MV3ua0Xy9Oq63f8AbmeOxZpnjsWaZ47le3fXNTKL0NWQ2arU7b3ykWOZ4rFnmeKx5jqleF2Oa3elUXGrMqsZ+64yrYFQSjEqCUUkwKglGJcGoJBiVBKOSYFQSjEqCUUkwKglGJcGoJBiVBKOSYFQSjEqCUQMa16tDenWZcb3JXvtxPVtmXK8w1Ws/rleXtz27SuZ4rFnmeKx5jqleF1OGcb2y3L7Zk6/+XrFxvedHROZ4SqmvMsdjzTLHYyN4c8wkahjXs+U943rTvfbjenWZcb2beo1RSTAqCUYlwagkGJUEo5JgVBKMSoJRSTAqCUYlwagkGJUEo5JgVBKMSoJRSTCqp/96yV1z7odiTt1gQwWjeuqAQvn5tpNRDC5M99qGqMyosxlll40bDVfp58MhczzWLHM81ixzPNY8x0yizJvyo05D+3DZuHY743rPz6/3GNd7nR7XK/ZUh3qjGFIvTPa6fr1k9+Tb0mXjZI7HmmWOx5pljsea57ih1xiVBKOSYFQSjEqCUUkwKglGJcGoJBiVBKOSYFQSjEqCUUkwKglGJcGoJBiVBKN6/LheXbYJH7WhglE9flzPlvkywMJUr4spNlxVbDrb8v7jNDSNDz0YMsfzPD0N7bUgczzWPEk7f9m4flzPljd+2TiZ47FmmeOx5jmmeu3H9eoy43ozvXbjelw2TtzQa4xKglFJMCoJRiXBqCQYlQSjkmBUEoxKglFJMCoJRiXBqCQYlQSjkmBUEoxKglE9Gtd7syGF9liWmK833es6lleXilF3mq+nCj26537IHI81a3Mea5Y5HmueY6rXxZQ6rmdDClPz9dqlgT1V6Cmtk9du6/7D/dDmPO1+chqajdXJHE8dw5tieVyvWyo34/l6+jmNKvRYsyr0VPk90eY81qzNeaxZ5niseY6pXr+P63VG2aBeXerAqAEby9vv62je6vl6qtBjzarQY82q0GPNt6HNeaxZm/NYszbnseY5lns9CUYlwagkGJUEo5JgVBKMSoJRSTAqCUYlwagkGJUEo5JgVBKMSoJRSTAqCUYNdJeN2zWXY7d8XHHZOFXosWZV6LFmVeix5tvQ5jzWrM15rFmb81jzHFO9ftvVy8YVmvWXjVOFHmtWhR5rVoUea74Nbc5jzdqcx5q1OY81zzHV62EUpn3qlr9uFEYVeqz5NrQ5jzVrcx5r1uY81jzHVK9tTKEbrpq5bJzG0SZRhZ7ndr9mcK1t96v/zm/6LvP1Xl/vf9k4VeixZlXosWZV6LHm29DmPNaszXmsWZvzWPMcU73WZeOKRzdcNk4VeqxZFXqsWRV6rPk2tDmPNWtzHmvW5jzWPMdyryfBqCQYlQSjkmBUEoxKglFJMCoJRiXBqCQYlQSjkmBUEoxKglFJMCoJRiXBqCQYNdCP6zW73f5SbhnXm+61H9er09AY15vu9TCuJ6OOo+Eq/ZxGFXqsWRV6rFkVeqz5NrQ5jzVrcx5r1uY81jzHVK9tLK8a1eWqsYvtOaMuf34l6r2nH9erX5xodl2P60FPHcvb12++rV8wWf7IMwAAAAAAAAAAAAAAAAAA+OkcmqZ5HyM+2q9PO/sSU8OargUAi7zVk6LOOjXqaGGqtI1mGF8LAJY5dq8+rV6E3oOzV6JGAoBl9l1S9KPs4CxHhz5Xb82p7c6J7QUjdKIa/Ar0oC+j3dxJr0jda1T/m/3eHq4EI5JbgR9A9rFuLVI1L6f6bVtnNZ3tpels5w4PgglI1O/hex5rEvV7IFFwX0gU3BcSBfeFRMF9IVFwX0gU3BcSBfeFRMF9IVFwX0gU3BcSBfeFRMF9IVFwX0gU3BcSBfeFRP069I2sARKvh0T9OhSZAInXk36sbYLe5X1aQntoLvXc86F9JLiCRD0QikyAxOvJPtbX0/E0T6EwtC/O1yNRK9E3iwdIvBJFJkDi9SQf6/ZQX30+zNcbpuk99QuTr1IkaiWKTIDEK1FkAiReT/Kxvp6vV3ZwNufl8PLe/nYlGPPnTwtrUGQCJF6JIhMg8XqSiZqbrze075mvd08UmQCJpy65MYHEj/I+aj9Mxxvm69WmoZ35evdEkQmQeJuJ+hwkaiWKTIDEJApCFJkAiUkUhCgyARKTKAhRZAIkJlEQosgESEyiIESRCZCYREGIIhMgMYmCEEUmQGISBSGKTIDEJApCFJkAiUkUhCgyARKTKAhRZAIkJlEQosgESEyiIESRCZCYREGIIhMgMYmCEEUmQGISBSGKTIDEJApCFJkAibeZqHrS7767nJD91p/9u2+O3cK1YASJWokiEyDxJhN1vJ6YsD/0iRqyxcyFe6LIBEi8yURp1lQ/Ha+78qeFZ6+lkWAEiVqJIhMg8TZfo6YCczhroSwtX7Gxn6+3734UWFpYek7O13uu/+W1VWQCXqVWZAI69aqyO7KJ6mboXU9C94nSXdeCAV6jVqLIBEi80WO9unuz/dzpsu/2ejU8bukiwQQkaiWKTIDEG03UpyBRK1FkAiQmURCiyARITKIgRJEJkJhEQYgiEyAxiYIQRSZAYhIFIYpMgMQkCkIUmQCJSRSEKDIBEpMoCFFkAiQmURCiyARITKIgRJEJkJhEQYgiEyAxiYIQRSZAYhIFIYpMgMQkCkIUmQCJSRSEKDIBEpMoCFFkAiQmURCiyARIvM1EXU/HG2bpvbczX++eKDIBEm8yUaP5esMsvaGdKw3dFUUmQOJNJmo0Ha+fpde3D1dDW5pdtW/bZ8ihyASY0mxVZAJehSITIPEqWpuSlX2NmgrM4eyu2Hh9SccRvEatRJEJkHibe725+XpD+5RggEStRJEJkHijx3rv8/Xq2/BCF566aO2DYAIStRJFJkDijSbqU5ColSgyARKTKAhRZAIkJlEQosgESEyiIESRCZCYREGIIhMgMYmCEEUmQGISBSGKTIDEJApCFJkAiUkUhCgyARKTKAhRZAIkJlEQosgESEyiIESRCZCYREGIIhMgMYmCEEUmQGISBSGKTIDEJApCFJkAiUkUhCgyARJvNFHHQ3O5mjv10thFPPZNaW5sstUHgYNErUSRCZB4m4l6G51Gfjzsz5aoYZ7VWHAFiVqJIhMg8SYT1Y6muhwP7a4maq9EjQXXkKiVKDIBEm8yUcO8vC4wdU5xTVTlrdkrSr1gBPP1VqLIBBRh+9y+vioyAZpU93Xz9ep0vfx8PT9luJsAWujjc35pmVN8TxSZAIm3+T5qb5GqebHZVZX6GnW2X86N7e96wQQkaiWKTIDEGz3W+xQkaiWKTIDEJApCFJkAiUkUhCgyARKTKAhRZAIkJlEQosgESEyiIESRCZCYREGIIhMgMYmCEEUmQGISBSGKTIDEJApCFJkAiUkUhCgyARKTKAhRZAIkJlEQosgESEyiIESRCZCYREGIIhMgMYmCEEUmQGISBSGKTIDEJApCFJkAiTeaqPF0vOP5UmcuDO3M17sjikyAxNtM1Nx8vaGd+Xr3RJEJkHiTiZqbr8e1q74GRSZA4k0mam6+nhra/vp6C/P19m3b2vQy/iT+KDIBJrVJcopMQJ1NV/SKTIDUK7D5euVBTiZqZr7eaWjnGqB3RZEJkHib76Pm5usN0/SYr3dPFJkAiTd6rPcpSNRKFJkAiUkUhCgyARKTKAhRZAIkJlEQosgESEyiIESRCZCYREGIIhMgMYmCEEUmQGISBSGKTIDEJApCFJkAiUkUhCgyARKTKAhRZAIkJlEQosgESEyiIESRCZCYREGIIhMgMYmCEEUmQGISBSGKTIDEJApCFJkAiUkUhCgyARJvNFHHw6UZpuMdz7qo3m5vl9e7HOr19ZxgBIlaiSITIPE2E9VPx7MUiXpSeX81tCnBOyRqJYpMgMSbTJTm6/nJU3WqQrntEjUhcHwiUTIvQOKV3j4u6laAxJtM1DAvzwXmMEx8eWtOumd2Bmidq6fJaKv+yLyAXi3zAl6lftw/6lbAsybKqVsB3zFfr/yvZKKu5+uJ9ynpX3h9PZkXIDGvUQtI/Cjvo9x8vct+V1+JXuy3F1v6yuvrybwAiR/L20+gbgVIvM1EfQ4StRJ1K0BiErUKmRcgMYlaQGISlUJiErWAxCQqhcQkagGJSVQKiUnUAhKTqBQSk6gFJCZRKSQmUQtITKJSSEyiFpCYRKWQmEQtIDGJSiExiVpAYhKVQmIStYDEJCqFxCRqAYlJVAqJSdQCEpOoFBKTqAUkJlEpJCZRC0hMolJITKIWkJhEpZCYRC0gMYlKITGJWkDiR0lUPY9838/He7OTyg82YW9or2eiD4IRJGol6laAxNtM1MTEBPvl2Ld/2ZWGZF6AxCRqAYkfJFGaXTVMxzs3TZ0dM7RHV0PTwnpkXoDEJGoBiR8kUcOVGX1gDuf8FRtvvraezAswqSHzAtbOXFs/d+1mVva6aEtx6lbA2l7fxGt6vl43N+/6orElUWopt1OCAV6jVqJuBUi8ydcoe/Up2Jskm69Xfrk0XXiG9noZx+npeiRqLepWgMQbTdSnIFErUbcCJCZRq5B5ARKTqAUkJlEpJCZRC0hMolJITKIWkJhEpZCYRC0gMYlKITGJWkBiEpVCYhK1gMQkKoXEJGoBiUlUColJ1AISk6gUEpOoBSQmUSkkJlELSEyiUkhMohaQmESlkJhELSAxiUohMYlaQGISlUJiErWAxCQqhcQkagGJSVQKiUnUAhKTqBQSk6gFJH6URI3m653tdOByU251+bNrwQgStRJ1K0DibSZqcr5eCdNwfT3m690TdStA4k0majxfr9BdzqpOXCgxmhA4/tyOzAuQ+I/MC5D4j8wLkPhbUbcCJH60XutBX+bjfL03/2p0OE9O6AOYYzxf71RfoAYO5+X5egAfeJ+vV16GbJJ6ob4/L9QYDQIAAAAAAAAAAACAv8pu93/VlxLsRxdtkgAAAABJRU5ErkJggg==;" vertex="1" parent="1">
          <mxGeometry x="689.9996153041295" y="77.82540823800227" width="300" height="216.02" as="geometry" />
        </mxCell>
        <mxCell id="xVzUcxpCqJK35BR_aFPY-2" value="" style="shape=image;verticalLabelPosition=bottom;labelBackgroundColor=default;verticalAlign=top;aspect=fixed;imageAspect=0;image=data:image/png,iVBORw0KGgoAAAANSUhEUgAAAlAAAAG2CAMAAAHwznjjAAAAAXNSR0IArs4c6QAAAARnQU1BAACxjwv8YQUAAABjUExURf////n5+WxsbFlZWcXFxfz8/IuLi42NjdfX12BgYPHx8enp6WRkZKurq7+/v1xcXHp6etvb26Ojo3l5efj4+MLCwvX19WhoaHh4eAAAAMAAANnZ2QCwUABwwDg4OCAgIAAAADsBa5QAAAAhdFJOU///////////////////////////////////////////AJ/B0CEAAAAJcEhZcwAAFxEAABcRAcom8z8AABjjSURBVHhe7d1hb+Kw0oZhJFBVIVop/dR9dU7P//+Xr8e5oQ7EzCQbvC59rq3arpkmzvAUCklg17E9X//WW17Sn/E/a5U//qMX9X+G70vbL+q4P3Y4q+yJF3XKvzibLOozf95kUSMtauQsati/pO9fQ/Ki+L7U9QZmD1vUfwzfT9xfVEr7zS/OuKj/GkZwf1FpOe8bLWqkRY3GRY0Xl/jxId/RD6VcO+RFMYK8KC4ubT+rrO9FlbWLF/WZ+77Jor52Q/GLU9YuXtRIixqVF5f48WP5i5NrQ7843NeMut7ArLdFvU3uccraxYsadl9bLWqkRY1qF18Wla5EaSxF3W6wNnHYbElPYEz7JtxFpcc4Qe6i4n75ot53R74LuL+oJVfgb2/7Iu6i0j0Of3J58qL4vnBgQUvkRfH9X/qXixrvyOd4i7r5xRkXVf5NcHZ/UekBzvVvztpFzfj1ixovn5Xu6XkMM8qlcw9xqk8OsKBbuXTdrK6Npf0sqiz9p4ua/OKUpcsXNVGWalFz0h0GvwC5tPzFeeUCFJdzZ5PN/eLk0k428FtZ+o8XVTwwKUuXLyotaNyVY8rS5YuaKEufaFFffF22qLnLRZDuvHbDds9abK98bqy9ytp/waTybUjGgOMHTMpSnm9EO5rUMc1q39ukvmlSNzSpFZOyp3ZS0PP9jDp1Q5N6pkm9795O9rWrSZ0faXU1qTNN6sbySeXHexkDPmaUMOD4u0nlh6IZF85jRgkDjmLt7EH4sE/1AxXH54Gy4ZUZJVw6jxklDNx36L1TJU3qRvNJ8bMJF864Wnu6Rc8HeXQ1qcGO90m6mtSZJnXjB0+KRSatJ2V3M8PlbmYYig8WmbAfLxvGnRIZeyTm8bPJ5Men6/j+mBwVXOimUyVN6sZPmFS6Pc9/VvU0KXsqYe65BBaZ/ItOnWlSNzSpFZNKv3b29HCmTt3QpH7EpPjZhELcTGp88N7ZpEREMrsvTn96jv/phP2FcFxwyHsTea926tP34V0isgR/tyQM9IAZJQz0gBklDPSAGSUMLPKg+xhmlDCwxHio4PaYUcLAEm9pTuNTQdtiRgkDPWBGCQM9YEYJAz1gRgkDPWBGCQM9YEYJAz1gRgkDPWBGCQM9YEYJAwucj1PaHDNKGAizQ9FfxhfG2xozShhYYHwc84BHWcwoYaAHzChhoAfMKGGgB8woYaAHzChhoAfMKGGgB8woYaAHzChhoAfMKGFgib09cljwAg9RzChhYAmb03g3M3DM3jaYUcLAXVenbuf7Gd3N/EPMKGGgB8woYaAHzChhoAfMKGFgc+xCvLe79RozShjYHFPqdlLsa024rIIZJQwscD4c9j6m1GZS+cTa9GH3NfW7meJIv9cDM0ru3y0xo4SBu6Z3M+Mxut4dMlNqdfXFMCVNysWUNCkXU9KkXExp7aT4YfvxDbHMZpPKf6M/+MaTH45PihOfkvE48jmvLHN6OLodRV7HjJLJj1cxiVF+3Odhmc06FcIyNSkXy9SkXCxTk5rFIhNNynzuTt+36RMsMmk8qfxoJt2kj49mpqciscikcjfD/UMFP5sUPz5ZwfQjzwfD13ig/C0WmTS/+upYZKJJ3cciE03qPhaZaFL3schEk8rsKbPZg7pYZNJ+UnbPN06K+wf4dzP2VFcdP5uUdzNV077Ym8ns5w5oZpFJ+05VschEk7qPRSaa1H0sMtGk7mORiSZl9tVdMywyaTwpO0XF7mfm9razyKR1p/a7fbqfsd0zN1hk0npSd7DIRJO6j0UmmtR9LDLRpO5jkcmWk+JnE+qqGt5O8bMJdTWXV0yYYJFJR5MSERGRX+2T40pO6eGo/lSoG9JDduvPfnzc/nY5wuTPb0YPJr527+P7uqRGve9eLvtHf/MrHC3adjUqSI0KUqOC1KignhvFEyYTXLQJNSpIjQpSo4Lq214+joEaNeP8OOZU7H/8w1EqPaI3E1y0iXpIyscxUKKC1KggNSpIjQpSo4LUqCA1KkiNClKjrrydd77wJ+eZGjV15NFLkv8qv/xpPj6EOXT4qXxnrm93zxZYaDYk+bVp7bXQ06Pi/f771RaVqCA1KkiNClKjgtSoIDUqSI0KUqOC1Kg55eMYqFEzrh/HGDVqzuVxjB7CmEXbrkYFqVFBalSQGhWkRgWtaxRnDJa4ZEv0ZoKLNvHvGsVZlhO5fh16M8FFm5jd9uP+y768fOWngr/+8oB8mlOyYXozkevXoTcTXLSJuW0/vp//KH+bnjarRk0dzw/zaFI+8M6oUUFqVJAaFaRGBalRQWpUkBoVpEYF/cRGscZSrl+qvu3l4xioUTMmj2OgRs24fhxj1KggNSpIjQpSo4LUqCA1KkiNClKjgu4XM7sJG2d6JRumNxM2vhIrnLBx1ljK9UvNbjuPXnYv9td5eC8Ms5uwcaZXsmF6M2HjK7HCCRtnjaVcv9Tctl8evQyXhzEjNWrq8ujFGpUE98IwuwkbZ3olG6Y3Eza+EiucsHHWWMr1S93f9itqVJAaFaRGBalRQWpUkBoVpEYFqVFzTrt3+3vzULzHsho14/LwhT/PjRo1Jz1wySd3qFHZ/W2/okYFqVFBalSQGhWkRgWpUUFqVJAaNXUcH72MX7RzYTS37bxM8Phlb+dg488w8CbVc5jdhP0A0ytZOb2ZsPH8wlnLPuzHWOFEWlht7YukNcy/0FZ69GJ7XvgSPZ2f2U3YONMr2TC9mbDxlVjhhI2zxlKuX+r+tl9Ro4LUqCA1KkiNClKjgtSoIDUq6IkaxQonbLzKbdT5r06jRtWd3/Uk470LK5jdhI0zvZINM7sJG1+JFU7YOGss2TArnLDxOnpQtS9euk1ERERERETk6Z32h/z15cVeg7rcVyylt/M+z0NqlJ46qDuNT0Pld95Vo+7guIPhOAarOPbgN6MHpZQoe7Iu3Trl26rLoQfLnmB/MnPbPrzZ85pjj1KXikTx9TdatO1qVJAaFaRGBalRQWpUkBoVpEYFqVFBPTeKww1KXLINNSpIjQpSo4LUqCA1KkiNClKjgurbfvoaXxni5Wc8w0lzSlyyjeq2266Y/LqS72qUqW677YqxSO1/yHPmNKfEJduobvvVrpjsz9AvmlPikm3cS9R5V8zlVWyUqBnjrhjrkX71zKJtV6OC1KggNSpIjQpSo4LUqCA1KkiNClKjgtSoIDUqSI0KUqOC1KggNSpIjZo62nN2u92HPR88OXNBjZqyZ4HtKHM1qjC37exX2Nl5VcN+/90qNWrqvKcqf8enrN+9MLOvw5nGD3bhJp/mGvVy2aFw3Si+9ojmlLhkG7Pbbr9uh0P6rcu/egwmalSQGhWkRgWpUUFqVJAaFaRGBalRQWpUkBoVpEYFqVFBalSQGhWkRgWpUUFq1Ax2xbzlp9ChRs04FbtiztSoGfY0cD4Xpnwq+O6bfP1bNKfEJRuo7FzIUqLKXTGZEjXjaldMpkbNKXbFnKlRQWpUkBoVpEYFqVFBalSQGhWkRgWpUUFqVJAaFbSqUbyp3QQXbYnmlLhkG2pUkBoV9O8axftJlnL9SjSnxCXbUKOCZrf9NL5ujT0VdfgqnpBSo6Y+drzG1m6LUzzozYSN05xSrl+J5pS4ZBtz2/79dLkadTG37ecdMOSq+NVbvBNmOLzSmwk7b4LmlPihVWhOiUs2UNkLY7v0LEjs1+PXMFGipg4fKUWH94Ol6mWSKL4uQm8mbJzmlHL9SjSnxCXbWLTtalSQGhWkRgWpUUFqVJAaFaRGBalRQWpUkBoVpEYFqVFBalTQD2wUK5zI9UupUUFqVFB924tdMWdq1IxyV8yZGjWj3BVzpkbNSO0pd8Vka15oa3YvjO3ZoDklfmQxWxzNKdkwK5w42AWLDAf37U7Ou2IyJWpGfrsTdsWcqVFBalSQGhWkRgWpUUFqVJAaFaRGBalRQWpUkBoVpEYFqVFBalTQ/WKmV7JhZjdh4zSnZMNrscaSDbPCiVy/lBoVpEYFzW47O2B2X4vOhWF6JRtmdhM2TnNKNrwWayzZMCucyPVLzW07O2COb/a8efwUD6ZXsmFmN2HjNKdkw2uxxpINs8KJXL/U3LZfdsCoUd/mtv2yA2b8pSt+9Ybhtf7B9Ep2AbObsD0bNKdk+zvWsMWxxpINs8KJ64m7H/apkqi8A4YWRc+FYXolG2Z2EzZOc0o2vBZrLNkwK5zI9UvNbTs7YHKjFpwLw/RKNszsJmyc5pRseC3WWLJhVjiR65e6v+1X1KggNSpIjQpSo4LUqCA1KkiNClKjgtSoIDUqSI0KUqOC1KggNSpIjQpSo2bwdicLzoVheiUbZnYTNk5zSja8Fmss2TArnMj1S1W3/er54EyNmpH6U+5hyNSoGeU+q7O758JU9oMMzG7C9o/QnBJLWswWxxpLNswKJ/ipZaqNurzdiRKV1bd9fLuT436/1+6q5P62X1GjgtSoIDUqSI0KUqOC1KggNSpIjQpSo4LUqCA1KkiNClKjgtSoIDUqSI2aYgdM/jJ8vyiSGnWNHTD5i07xwNy2swMmfxnsGeEz27lgz9jPY3ql4TD/9L6V05ySDQ+HYemH/diSnQu5fonazgV2wNgXe5Wt9BVK1BQ7YM77YdQoM7vt4w6Y8Yt2qY/ub/sVNSpIjQpSo4LUqCA1KkiNClKjgtSoIDUqSI0KUqOC1KggNSroiRrFGks2XKdGXdhwnduoPS+6ZdSourfdc77aD2ss2XCd1yiePx+pUXXskRn9uYvplWyY2U3YONMr2fBarLFkw6xwwsZZY8mG76AHNSlR40lWcl9+A3oREREREREREREREREREXlyx/3bbve+t5MaR+/7TztzbyhOBhUJO6U8WYrO8fn43L0oULLWYbxt4ssuhykH6rA3M6H65AAi+WVihzkdxyQNHOKab69yoEan72/P3GPR5ClFr/eXz+/PUKDkVvh6H853be/nA/H5ozwpY3amQP1OD7veFajfSYGSTSlQsikFSjalQMmmFCjZlAIlm1KgOsMJ9B6q+6NAdYbAeKjujwLVGQLjobo/ClRnCIyH6v4oUJ0hMB6q+6NAdYbAeKjujwLVGQLjobo/ClRnCIyH6v4oUJ0hMB6q+7P8eh/s+N9D8XK37/vi2M0LBWodAuOhuj+Lr/dj7fyXKwrUOgTGQ3V/Fl/v1+e/2IHA84Gy9y6UpQiMh+r+LL+FOp//kr+Mt1e6hdoOgfFQ3Z/l1/vM+S8fCtRmCIyH6v6suN6/z3/5Ku72rilQ6xAYD9X9edj1rkCtQ2A8VPdHgeoMgfFQ3R8FqjMExkN1fxSozhAYD9X9UaA6Q2A8VPdHgeoMgfFQ3R8FqjMExkN1fxSozhAYD9X9UaA6Q2A8VPdHgeoMgfFQ3R8FqjMExkN1fxSozhAYD9X9UaA6Q2A8VPdHgeoMgfFQ3R8FqjMExkN1f8LX+/G0/zof9rvbfe73X6dj+uaQvtnv9/btlAK1DoHxUN2f6PX+cbLPk+M0D3aUXfWtORSodQiMh+r+BK/34VQeSZ4N9nZCY6rmKFDrEBgP1f0JXu/X57qY0/eZVMVZemf5rJeDnQehT/FPr+GzXl7vLOVffgoGKr+7WXk2nvm+A5zcFY50C7UOgfFQ3Z/o9X4Y3y8v5clOTTjZLdKn/e/FvnvRH+WbITAeqvvzsOtdgVqHwHio7o8C1RkC46G6PwpUZwiMh+r+KFCdITAeqvujQHWGwHio7o8C1RkC46G6PwpUZwiMh+r+KFCdITAeqvujQHWGwHio7o8C1RkC46G6PwpUZwiMh+r+KFCdITAeqvujQHWGwHio7o8C1RkC46G6PwpUZwiMh+r+KFCdITAeqvuz4nrP57+cj/k9vsyf9KJArURgPFT3Z/n1/nH7OuXTI4NHCtQ6BMZDdX8WX+/V81+uKFDrEBgP1f1ZfL3PnP+S7gPnbqHsHA79W/qPwHjKH+nlX7Y4UJXzX27+itIt1DoExkN1f5Zf79PzX/IN1Yv+htoMgfFQ3Z+HXe8K1DoExkN1fxSozhAYD9X9UaA6Q2A8VPdHgeoMgfFQ3R8FqjMExkN1fxSozhAYD9X9UaA6Q2A8VPdHgeoMgfFQ3R8FqjMExkN1fxSozhAYD9X9UaA6Q2A8VPfnGQL1nxiqO0dgPFT3R4HqDIHxUN2fXxio/8ZQ3RqB8VDdHwWqhurWCIyH6v4oUDVUt0ZgPFT3J3q9D6c3O7aOk10+XuxI8vQpfZ4548UoUOsQGA/V/Qle70fL09WBv++WpR7emoPAeKhWoB4qeL3PnZqQDy4f9mYmVArUOgTGQ3V/ordQY5KKk6c+yhSd7N5vqs1ZL+aVwHjO5QTGk6rLNbX6R2A85Y/08i+L3pCMJ3ZeTu98/8p3gTjOBopvHo/AeKjWLdRDha/3dN/2dbIbpfd0K/WS7+jsr/J8l3f71kEK1FoExkN1fx52vStQ6xAYD9X9UaBqqG6NwHio7o8CVUN1awTGQ3V/FKgaqlsjMB6q+6NA1VDdGoHxUN0fBaqG6tYIjIfq/ihQNVS3RmA8VPdHgaqhujUC46G6PwpUDdWtERgP1f1RoGqobo3AeKjujwJVQ3VrBMZDdX8UqBqqWyMwHqr7o0DVUN0agfFQvXTbH0+BqqG6NQLjoVqBegSa5qFagXooBaqG6tYIjIfqZwhU7fyXKwrUOgTGQ/UTBKp6/ssVBWodAuOh+gkCNXP+S77NupZPUng9DMOjP16jJym8gsB4rPRqVQ/9yHN7fSUwnrF4GNg2j51E0MCCkxQunPNfLnQLtQ6B8VD9DHd5d89/+aZArUNgPFQ/QaDs3m72/JcrCtQ6BMZD9VMEKkaBWofAeKhWoB6BpnmoVqAeSoGqobo1AuOhWoF6BJrmoVqBeigFqobq1giMh2oF6hFomodqBeqhFKgaqlsjMB6qFahHoGkeqhWoh1KgaqhujcB4qFagHoGmeahWoB5KgaqhujUC46FagXoEmuahWoF6KAWqhurWCIyHagUqhKZ5qFagfFQ3oEDVUN0a2+ahWoEKoWkeqhUoH9UNRK/36bkudpDd+VDgB7zXC03zUK1A+ahuIHi9357rwkHlD3mvF5rmoVqB8lHdQPB6vz3XhW/vvNfL5USOhYbomR/D63i2CE3zsPglZ70k5YkpD/1gfWybJ9emH2LbPLn8sWwb4me93J7rUnxbea8XvlmBpnmo1i2Uj+oGotf71bkukxurzd/rhaZ5qFagfFQ3EL7e833b+VyX8Y5u/3lMubKvY8mEArUO2+ah+gcHaikFah22zUO1AhVC0zxUK1A+qhtQoGqobo1t81CtQIXQNA/VCpSP6gYUqBqqW2PbPFQrUCE0zUO1AuWjugEFqobq1tg2D9UKVAhN81CtQPmobkCBqqG6NbbNQ7UCFULTPFQrUD6qG1CgaqhujW3zUK1AhdA0D9UKlI/qBhSoGqpbY9s8VCtQITTNQ7UC5aO6AQWqhurW2DYP1U8RqOPpa385W8FeZ/qrOHbzQoFah23zUP0EgTp+cOzmeLbLcf82ORj4QoFah23zUP0EgRpOOT7FEcBDcXP1TYFah23zUP0Egbqc7XIJVHl0+Tc766U8qSP+seDMj/FUEZrmybUJgfFQ3fq0F7bNk2uXn/HzWLYVy+/y9rdn6OkWajtsm4fqJ7iFSjdIKVE5T+/jX+O1Wyi+WYGmeahWoHxUN/A31/tdCtQ6bJuHagUqhKZ5qFagfFQ3oEDVUN0a2+ahWoEKoWkeqhUoH9UNKFA1VLfGtnmoVqBCaJqHagXKR3UDClQN1a2xbR6qFagQmuahWoHyUd2AAlVDdWtsm4dqBSqEpnmoVqB8VDegQNVQ3Rrb5qFagQqhaR6qFSgf1Q0oUDVUt8a2eahWoEJomodqBcpHdQMKVA3VrbFtHqoVqBCa5qFagfJR3UD4ep+e63L532Gfvvk63b4/hwK1DtvmofrnBopzXU75P+f/5ZeV1ltzbIpt81D9YwM1nPKNE4ePX/5nr1iuQG2KbfNQ/WMDxXHjs1/SDdbMaQqc9fK65h9N87zae4ukcprmOS+ewHjO5XktDbA2ts1j7/Ni/9g2Dwt/6L+8DfH3einPdbk58+V82mdBt1DrsG0eqn/sLVS6NSrPdRku/3ux26bP/VhUUqDWYds8VP/cQC2mQK3DtnmoVqBCaJqHagXKR3UDClQN1a2xbR6qFagQmuahWoHyUd2AAlVDdWtsm4dqBSqEpnmoVqB8VDegQNVQ3Rrb5qFagQqhaR6qFSgf1Q0oUDVUt8a2eahWoEJomodqBcpHdQMKVA3VrbFtHqoVqBCa5qFagfJR3YACVUN1a2ybh2oFKoSmeahWoHxUN6BA1VDdGtvmobq/bVegaqhujW3zUP18gcqH2h1mDwHmmxVomodqBcpHdf+BOp6uDga+UKDWYds8VD9doK5PV/imQK3Dtnmofr5bqDFJM29I9fVHfqX/EYBVjrsXTvnM/xX5a8M+ufkLSkRERERERERERETkR9vt/h+2n+IInAqTTAAAAABJRU5ErkJggg==;" vertex="1" parent="1">
          <mxGeometry x="377.0047314453125" y="77.63631309107738" width="290" height="214.56" as="geometry" />
        </mxCell>
        <mxCell id="xVzUcxpCqJK35BR_aFPY-1" value="" style="shape=image;verticalLabelPosition=bottom;labelBackgroundColor=default;verticalAlign=top;aspect=fixed;imageAspect=0;image=data:image/png,iVBORw0KGgoAAAANSUhEUgAAAk8AAAG2CAMAAAEma6KGAAAAAXNSR0IArs4c6QAAAARnQU1BAACxjwv8YQUAAABmUExURf////n5+WxsbFlZWcXFxenp6WRkZKurq9fX12BgYPHx8b+/v1xcXNvb26Ojo3l5efj4+Pz8/IuLi4qKinh4eAAAAI2NjcAAANnZ2Xp6esLCwvX19WhoaACwUABwwDg4OCAgIAAAAN1mxrcAAAAidFJOU////////////////////////////////////////////wAN0MNxAAAACXBIWXMAABcRAAAXEQHKJvM/AAAX4ElEQVR4Xu3dbXPayrKGYapEERcu+QtOnU97e///X3mmRzegAYluKYK04+daWbYz7ohR85gXo0G7vA4dX/ypX/Xj7/pxtfE/16Ye458f3q9fe/7P8PXYiln98E0ddrvyg7PJpj7rx002NdCmBs6mune7Bt9C6qb4eqRPvYNVtk191nucTTb1tduV275NNjXQpgbOprr3Y/maHwFH3VR/L/UOVtk2Ve4mnvmD8x+z+69hBI83NdCmBs6mhodq/GQM6qb6uil+MgYrfnDqpuZnNXx7bGpT49p/ZFPlicnoB2dcu3hT/a5bt6nxt8//3Pzbm9qsV4fefnLktbrdr3INbmS7LclzDD+Dm/jhm1p0Y/V4U7vdic8B3qYW0Kb68ocHaY66Kb4eKRtYrG6Kr//QD99U+RmM/+Q83tQi2lRpOz8BnropnteM7NnQEnVTfP2HvuemFtzaPN7U+66//cG5f1x+9nhTE7SpeYebH5y6qYnfDcz+cmD+B6du6sGshu87xqX/zqaOfC7Gpcs31e1Ow0s5ZlzqbWrq+yNeqff9Ea/U+/6IV+p8f/x00CldMiv52YZbwMS/axj/mu31Zi5dk7rzDSb1Ve67yv+pJnWwx6H11x/bTqreBVQMOGYuXZO6o0mtmJTdzXT1tSB1aoIm9e9Myp4eDU+REk2q/oKiPF1ONakrTeqOJrViUvw+58M+BI+3CmJGxdu+7/0/uvo0KQ8zKhhwNJf+YXcy9WY90aTqc5lsk7rSpO5oUismVe9meu5m+v5t5k/9BWwVfF18fDfDKxSPrbibYUbFbvjdcMU3pzGjggGHJvXvTKr+fsp72s6Mihd1qtvth19ZZ5rUxfMmxb8t+OaE2KTYZKFJ3UgzKbubGRaJvmpS/NuCQvzVTvFvCwqhSf07kzrYayBTdzNssvibnRKRH89uoLrhZiqNY5nP9SiqJM6TSjcxEZHkbN1zrrsZ0y9YILIAD9ALBhax1xvWLBxyMKOCgQyYUcFABsyoYCADZlQwkAEzKhjIgBkVDGTAjAoGMmBGBQMZMKOCgQXen3Ufw4wKBsL6MqXuOU+xmFHBwALD85gn3Psxo4KBDJhRwUAGzKhgIANmVDCQATMqGMiAGRUMZMCMCgYyYEYFAxkwo4KBJX51z3iE/qed6nf9cDcTPjgjhBkVDDy0v2nMU55gKehxzKhgIANmVDCQATMqGMiAGRUMZMCMCgYyYEYFAxkwo4KBBcpj9OfcejKjgoGw+mymTKqu73vW3cz4qPP5P3U+KPd7ZVKjZfxbYUYFAxkwo4KBDJhRwUAGzKhgIANmVDCQATMqGMiAGRUMZMCMCgYyYEYFA4ucb9A3xowKBhYpz2aGL7h/2AgzKjji3DHMAb+6Z/RJQY9jRgUDGTCjgoEMmFHBQAbMqGAgA2ZUMJABMyoYyIAZFQwsUJ7NsJh1Y8yoYCDMns3YGnKezdwtd+LP8C5sJv6MhxkV3I846nzQf70Hns0wpQWHDr8gU0xJk3IxJU3KxZQ0KRdT+uGTijxEZ0qvm9TlBp77hylMye5mmFHB/cOkP3w20/V7XjB6gCn9U5niH9s/3xDb/PuTYpOFJvUYmyw0qcfYZKFJmXK7OXM/wyaLF0/KlqjY/czUa0ZssthyUvzbgroJdvTbzOFvbLJ49aQeYJOFJvUYmyw0qcfYZKFJPcYmi9dPanaJCpss/kKn2ofsV2yy+AuTKp2KPMsSERGRn+VzWGNUH1BNPqqSys7YZP0p/9u7Wf+6PK76/ZPRg0a3e7cXbA+7/a/y6PN0eX30J7/D0aJ9V6OC1KggNSpIjQpSo4LUqCA1KkiNmvBrVx9pHse/7lSjJpTnL31p0qHfHa6PzDnqJCN++93gW5uYbVT/y57JvB9P1jJkThS9afCtTSzadzUqSI0KUqOC1KggNSpIjQpSo4LUqBvl6QsvLvABalTryKswRT188nIMZd6nMOOD/6/e7Fv7LT7sp5/C9HbKYzuo87N8sg9QooLUqCA1KkiNClKjgtSoIDUqSI0KUqMm2Hs0lEfozfpVNWpCaZQdUDZ8BTVqStf1u/1+b89mztSoIDUqSI0KUqOC1KggNSpIjQpSo24cuy8+28Opr29xQD69afCtTUztux08Zg8zj/1p+OJMjWodh5er+s7eMqK4vLqgRgWpUUFqVJAaFaRGBalRQWpUkBoVpEZNOfCu/icdzWJm991eXLBO1ZPtQI2aYC9X9fU58fV8EWpUkBoVpEYFqVFBalSQGhWkRgWpUUFq1A1ehfmsx+XrVZhqat/Pr8LUj8MXg3WN4i1Tx/jOluhNg29tYrJRLBoq6hPiP3wVhuaM2TBvM9uo9evQmwbf2sSifVejgtSoIDUqSI0KUqOC1KggNSpIjZpQHnXag86P8WNzNWpCac/wKsxw8F2lRk04XZbx/+laGJozZsP0plHr16E3Db61iUX7/h0bxSWO1fql1KigDRvF7Bo2zvTGbJjeNGx8JS6wYeNc4litX0qNClKjgtSoIDUqSI0Kmtr342H3bg/K65u6Xp/AqFG3zqc7qQ/KWeZR/bY3nZr5M/1WV2X4esrsKzuTNr1pvL3dbjbyx7Y2/UZbZXtc4pj9Ay6wUbczbea9gj+H5y01VsX1Hcn4PI3ZNWyc6Y3ZMLNr2PhKXGDDxrnEMRvmAhs2Puvxvt9Qo4LUqCA1KkiNClKjgtSoIDUqSI2a8FEeaA5HkI0emfN5GrNr2DjTG7NhZtew8ZW4wIaNc4ljNswFNmx81uy+l/bUV2FG5yF0ztjI7Bo2zvTGbJjZNWx8JS6wYeNc4pgNc4ENG59HD+7U053s3/e/+LuIiIiIiIjIP+3Q1TfmPnZdfYO7OiZ37IS75ZMtQmvf710a9guoEqj66yf1aV7p0770yc5LzF8H/NrqZ6IHY7xnTfnZs0/Rww3+bVP7vh+dvrk06XJoufoUoz7FqE8x6lOM+hSjPsWoTzHqU4z6FKM+xahPMepTjPoUoz7FqE8x6lOM+jSF11m67nL4ofo04XN4l7/xi1Lq070jixcv74hYZO4Tx/k2+NYm5vb9vMiz/H9988g+L1rT4FubmM0T77RZmnT50VOeJnT2olRX/uu/xe04rWnwrU0s2Xf1KUZ9ilGfYtSnGPUpRn2KUZ9i1KcY9SlGfYpRn2LUpxj1KUZ9ilGfYtSnFu/fXpcijNcjqE8tO85+rz41pva9hMleRui7rh8+QH1qlTxZn4avxusR6isP+4Qf3v7K6y2ny5qWmz7xOSNa0+Bbm5jcd/tZ2+/Lj1z94WNQfYpSn2LUpxj1KUZ9ilGfYtSnGPUpRn2KUZ9i1KcY9SlGfYpRn2LUpxj1KUZ9mmDvRFM/XalPEzjOXn0azO27vaN97dP4977DKbBSojUNvvXnZl5HMOd1QMW3eJ8sWtPgW5uY3XfWlRXqUzG77/WFlq783F1XlqlPMepTjPoUoz7FqE8x6lOM+hSjPsWoTzHqU4z6FKM+xahPMepTjPoUoz7dOHT1PKa70+du/3X9xa/61LqcGff9pHUbmNp3W48wvCalPp1N7Xv5QbM+9cfhV+PXn7tv93pLXdSxyZ+ZPNkJSbrClrlcTresPLXqeZbrq8EnS5Rux4sl+64+xahPMepTjPoUoz7FqE8x6lOM+hSjPsWoTzHqU4z6FKM+xahPMepTjPo04dh98bl+MurThPPx44fL4ePq04Qj6zaOvfpk5vb9el6SUZ+Gt4xKidY0eClmA+55SXp70YUh5WkK5yUZLW9Rn4LUpxj1KUZ9ilGfYtSnGPUpRn2KUZ9i1KcY9SlGfYpRn2LUpxj1KUZ9ilGfbrC+pfs6an0Lpvb9sr5l12ndBqb2/by+xQ64//M+/WcC39oQrWnwrU1M7bu9flD7VH8/Pnwwv/s3OwXIsj89rWkMr5FsidY0eLFkAw/XtxT1NYQ/XN9Caxo2/t97tX4dWtPgW5uY2ve6vmX/XtpVX737w9txWtOwcXozVuvXoTUNvrWJJfuuPsWoTzHqU4z6FKM+xahPMepTjPoUoz7FqE8x6lOM+hSjPsWoTzHqU4z6NOEwvBPNr93h/OtM9WkK5yW5/Aq4UJ/unc9LcupKw6A+3Zs8LwmvbSxDaxr2Ugy9GbOXZ1aiNQ1eLNnA/PoWW1R2GL669onPy9Caho3Tm7Favw6tafCtTczu+2bnJaE1DRunN2O1fh1a0+Bbm1iy79+xT1xgo/6DhdSnGPUpRn2K2a5PTK5h40yuYeP0ZsyGV+ICGzbOBTbqP1hIfYpRn2LUpxj1KUZ9ilGfYtSnGPUpRn2KUZ9i1KeYqX0/2nHR9kpC/2knk7hQn1rX4+yXrG9hcg0bZ3ING6c3Yza8EhfYsHEusFH/wUJT+17CNKzbKMHqu+76ulR/d7qO65/ZM7EzuYaN05uxt7e7zUb+2Na4wEYZnl41Usa5xLH5s66U/Z7J09Cn4QUXXk74t/LEJY7Z8KypfT/xGguvS6lPxeS+28/afn+yt1yrL7tAfYpRn2LUpxj1KUZ9ilGfYtSnGPUpRn2KUZ9i1KcY9SlGfYpRn2LUpxj1aQLnJTl9RY/3ZXING2dyDRtndmM2vBIX2LBxLrBh41zimA3Pmt3383lJdr+C61uYXMPGmVzDxpndmA2vxAU2bJwLbNg4lzhmw7Pm9v18XhL1aTC37+fzklx+S178fojJNWycyTVsnNmN2fBKXGDDxrnAho1ziWM2PI8e3OK8JOM2yZR6XpIvtUlERERERERERERERERE5B90tPfOfO/2/PXyVX9d4ikSdqhvxfpOet4vhxooT7LCfrg96oeTde5OJ1sIa8fY7cvn0TL0i08OFZIfJnZQ0/Gcp+Fu7lTXoJ9vrcqt1+V9f89mDzqTf1r0ej/VA36Hj5YkO6D11zmLR+VJBuHrvT/fr73bfd7R/ma3VfX+jpSNKU8/07Oud+XpZ1KeZEvKk2xJeZItKU+yJeVJtqQ8yZaUJ9mS8iRbUp5kS8qTbEl5ki0pT7Il5Um2pDzJlpQn2dLi6723lQl7jiPf7d6/WOhyQ3n6mZZe78fbhS6jcyyOKU/r8PaxLsrTWXq9s9CFT8frQpcbv+2Ei7IYcXFRns7i26fHC10udPu0DnFxUZ7O4jxNLXT5uL/XU57WIS4uytNZfr3XFS11oYs9FLeFLlMPyZWndYiLi/J0nnW9K0/rEBcX5ekoT7kQFxfl6ShPuRAXF+XpKE+5EBcX5ekoT7kQFxfl6ShPuRAXF+XpKE+5EBcX5ekoT7kQFxfl6ShPuRAXF+XpKE+5EBcX5ekoT7kQFxfl6ShPuRAXF+XpKE+5EBcX5ekoT7kQFxfl6ShPuRAXF+XphK/346H74qDMegzUV9fZUXTXr1rK0zrExUV5OtHr/eNgH8+HZV7PsjF3vg3laR3i4qI8neD13h+aw8b3lxRdv2opT+sQFxfl6QSv93ZZy+Djsgjv+tVFXd+ytxUP+hD/8BZf3/L2YDN/60MRzNPRTld2u5DlfO83/upMt0/rEBcX5elEr/f9cP67EidbhnCy26OTnb6Fr/R4fCPExUV5Os+63pWndYiLi/J0lKdciIuL8nSUp1yIi4vydJSnXIiLi/J0lKdciIuL8nSUp1yIi4vydJSnXIiLi/J0lKdciIuL8nSUp1yIi4vydJSnXIiLi/J0lKdciIuL8nSUp1yIi4vydJSnXIiLi/J0lKdciIuL8nSUp1yIi4vydJSnXIiLi/J0ll/vdaHL+fjeva1u+TrcHU6nPK1EXFyUp7P4ev9o3n98bjmC8rQScXFRns7S6/1mocvccinlaSXi4qI8naXX++OFLle2vuVN/y3+j7i4xv8mx3+L1rdcHB8vdLnQ7dM6xMVFeTqLr/eJhS6fejy+GeLiojydZ13vytM6xMVFeTrKUy7ExUV5OspTLsTFRXk6ylMuxMVFeTrKUy7ExUV5OspTLsTFRXk6ylMuxMVFeTrKUy7ExUV5OspTLsTFRXk6ylMuxMVFeTrKUy7ExUV5OspTLsTFRXk6ylMuxMVFeTrKUy7ExUV5OspTLsTFRXk6ylMuxMVFeTrR670//LJj6a4H9r53n6fyqb9/q+hKeVqHuLgoTyd4vR8tTuPDfD8+d6chT9MLEpSndYiLi/J0gtf7zTKEo2Wp5mnfmftMKU/rEBcX5elEb5+GILFMari1qnkaHK5fQutb1v1HXFxWm1H0dmRYwtIsZHHyxBeyCHFxUZ5O+Hrvz/drtqyl4vFTcb9cSnlaibi4KE/nWde78rQOcXFRno7ylAtxcVGejvKUC3FxUZ6O8pQLcXFRno7ylAtxcVGejvKUC3FxUZ6O8pQLcXFRno7ylAtxcVGejvKUC3FxUZ6O8pQLcXFRno7ylAtxcVGejvKUC3FxUZ6O8pQLcXFRno7ylAtxcVGejvKUC3FxUZ6O8pQLcXFRns7i631uocsN5Wkd4uKiPJ2l1/vsQpcbytM6xMVFeTpLr/fZhS436noEWYy4uChPZFggsfj26fFClwvdPq1DXFyUp7M4T48XulwoT+sQFxfl6Sy/3vd2AsX7hS43lKd1iIuL8nSedb0rT+sQFxfl6ShPuRAXF+XpKE+5EBcX5ekoT7kQFxfl6ShPuRAXF+XpKE+5EBcX5ekoT7kQFxfl6ShPuRAXF+XpKE+5EBcX5ekoT7kQFxfl6ShPuRAXF+XpKE+5EBcX5ekoT7kQFxfl6ShPuRAXF+XpKE+5EBcX5ekoT7kQFxfl6USv93ZZy4cd5nuwU7fo/C3bIi4uytMJXu93y1qK+hedv2VbxMVFeTrB6/1mWcvus+u6mrD587e8bH1L/5+Yfv8NltwQFxfliSxa39Iua8H1LBt/93wb5MVD9e6/MVS/GHFxUZ5O9HqfWNaiPD0BcXFRnk74er+ev6XcRtlfvmq2Mpy/hbx4qFaenulZ17vytA5xcVGejvI0h+oXIy4uytNRnuZQ/WLExUV5OsrTHKpfjLi4KE9HeZpD9YsRFxfl6ShPc6h+MeLiojwd5WkO1S9GXFyUp6M8zaH6xYiLi/J0lKc5VL8YcXFRno7yNIfqFyMuLsrTUZ7mUP1ixMVFeTrK0xyqX4y4uChPR3maQ/WLERcX5ekoT3OofjHi4qI8HeVpDtUvRlxclKez/Ho/Hr66y+k2jqfyl6klCcrTOsTFRXk6S6/34wcHao4y1KxSgPK0DnFxUZ7O0uu9P7QLE4p+WJnQUp7WIS4uytNZer0TpGZhwuFvrm8pl0JePPyDN/LisdJ9b4tiXvOnzu0Hnr/lfiHezTKFSrdP6xAXF+XpLL7e9xaoGic738bBHpif9PhpM8TFRXk6z7relad1iIuL8qX7/nTK0xyqX4y4uChXnp6AnnmoVp6eSXmaQ/WLERcX5cpTAC1zUa48+ah+PuVpDtUvxq65KFeeAmiZi3LlyUf18ylPc6h+MXbNRbnyFEDLXJQrTz6qn095mkP1i7FrLsqVpwBa5qJcefJR/XzK0xyqX4xdc1GuPAXQMhflypOP6udTnuZQ/WLsmoty5SmAlrkoV558VD+f8jSH6hdj11yUf9883S9rqe8Rve/KV1+HuxUuytM67JqL8m+bp4llLR+2Tmo/cWymUZ7WYddclH/XPPX1wN6SnvMtVPHRlQ/POH8LLXNRrjz5qH7+vgev94llLZ/XZZwf45gNbH3LWrTM9fbW97asgp55rNT+o2eeofhlmB275qI8vu+ltvxh3zyX6Sz5781W6QTzdLxd1mKLEa6a+8FKt0/rsGsuyr/r7dPNspb6t+rTYvWpx+NbYddclH/bPC2lPK3DrrkoV54CaJmLcuXJR7Xy9AjlypOPauXpEcqVJx/VytMjlCtPPqqVp0coV558VCtPj1CuPPmoVp4eoVx58lGtPD1CufLko1p5eoRy5clHtfL0COXKk49q5ekRypUnH9XK0yOUK08+qpWnRyhXnnxUK0+PUK48+ahWnh6hXHnyUZ0wT/3h1+g48o+THQRcV7q0lKd12DUX5d8+T0eL0/jA3+J94oRAytM67JqL8m+fJxYmjM/fcrwc/DuiPK3Drrko//63T3cLXT4mV0x9/ZYf6X8EIOg4nKvlcsaW96+7pVIiC+xtfbndJL2X26hTZ74+7h9AiYiIiIiIiIiIiIh8O7vd/wNrLTN/QN0G2QAAAABJRU5ErkJggg==;" vertex="1" parent="1">
          <mxGeometry x="90.00169073807561" y="77.82736572265624" width="290" height="214.93" as="geometry" />
        </mxCell>
        <mxCell id="sHCcjTylrbnUzLHwBNiM-2" value="ML-100k" style="text;html=1;strokeColor=none;fillColor=none;align=center;verticalAlign=middle;whiteSpace=wrap;rounded=0;fontSize=18;" parent="1" vertex="1">
          <mxGeometry x="137" y="64" width="91" height="30" as="geometry" />
        </mxCell>
        <mxCell id="sHCcjTylrbnUzLHwBNiM-3" value="Music" style="text;html=1;strokeColor=none;fillColor=none;align=center;verticalAlign=middle;whiteSpace=wrap;rounded=0;fontSize=18;" parent="1" vertex="1">
          <mxGeometry x="278" y="64" width="60" height="30" as="geometry" />
        </mxCell>
        <mxCell id="sHCcjTylrbnUzLHwBNiM-4" value="&lt;font style=&quot;font-size: 18px;&quot;&gt;Recall@10&lt;/font&gt;" style="text;html=1;strokeColor=none;fillColor=none;align=center;verticalAlign=middle;whiteSpace=wrap;rounded=0;fontSize=18;" parent="1" vertex="1">
          <mxGeometry x="137" y="285" width="188" height="30" as="geometry" />
        </mxCell>
        <mxCell id="sHCcjTylrbnUzLHwBNiM-8" value="&lt;font style=&quot;font-size: 18px;&quot;&gt;MRR&lt;/font&gt;" style="text;html=1;strokeColor=none;fillColor=none;align=center;verticalAlign=middle;whiteSpace=wrap;rounded=0;fontSize=18;" parent="1" vertex="1">
          <mxGeometry x="433" y="285" width="188" height="30" as="geometry" />
        </mxCell>
        <mxCell id="sHCcjTylrbnUzLHwBNiM-9" value="&lt;font style=&quot;font-size: 29px;&quot;&gt;(a)&amp;nbsp;n_degree&lt;/font&gt;" style="text;html=1;strokeColor=none;fillColor=none;align=center;verticalAlign=middle;whiteSpace=wrap;rounded=0;fontSize=29;" parent="1" vertex="1">
          <mxGeometry x="263" y="320" width="252" height="30" as="geometry" />
        </mxCell>
        <mxCell id="sHCcjTylrbnUzLHwBNiM-35" value="ML-100k" style="text;html=1;strokeColor=none;fillColor=none;align=center;verticalAlign=middle;whiteSpace=wrap;rounded=0;fontSize=18;" parent="1" vertex="1">
          <mxGeometry x="422" y="63" width="91" height="30" as="geometry" />
        </mxCell>
        <mxCell id="sHCcjTylrbnUzLHwBNiM-36" value="Music" style="text;html=1;strokeColor=none;fillColor=none;align=center;verticalAlign=middle;whiteSpace=wrap;rounded=0;fontSize=18;" parent="1" vertex="1">
          <mxGeometry x="563" y="63" width="60" height="30" as="geometry" />
        </mxCell>
        <mxCell id="sHCcjTylrbnUzLHwBNiM-37" value="ML-100k" style="text;html=1;strokeColor=none;fillColor=none;align=center;verticalAlign=middle;whiteSpace=wrap;rounded=0;fontSize=18;" parent="1" vertex="1">
          <mxGeometry x="744.5" y="61" width="91" height="30" as="geometry" />
        </mxCell>
        <mxCell id="sHCcjTylrbnUzLHwBNiM-38" value="Music" style="text;html=1;strokeColor=none;fillColor=none;align=center;verticalAlign=middle;whiteSpace=wrap;rounded=0;fontSize=18;" parent="1" vertex="1">
          <mxGeometry x="885.5" y="61" width="60" height="30" as="geometry" />
        </mxCell>
        <mxCell id="sHCcjTylrbnUzLHwBNiM-39" value="ML-100k" style="text;html=1;strokeColor=none;fillColor=none;align=center;verticalAlign=middle;whiteSpace=wrap;rounded=0;fontSize=18;" parent="1" vertex="1">
          <mxGeometry x="1047.5" y="61" width="91" height="30" as="geometry" />
        </mxCell>
        <mxCell id="sHCcjTylrbnUzLHwBNiM-40" value="Music" style="text;html=1;strokeColor=none;fillColor=none;align=center;verticalAlign=middle;whiteSpace=wrap;rounded=0;fontSize=18;" parent="1" vertex="1">
          <mxGeometry x="1188.5" y="61" width="60" height="30" as="geometry" />
        </mxCell>
        <mxCell id="sHCcjTylrbnUzLHwBNiM-41" value="ML-100k" style="text;html=1;strokeColor=none;fillColor=none;align=center;verticalAlign=middle;whiteSpace=wrap;rounded=0;fontSize=18;" parent="1" vertex="1">
          <mxGeometry x="1389" y="61" width="91" height="30" as="geometry" />
        </mxCell>
        <mxCell id="sHCcjTylrbnUzLHwBNiM-42" value="Music" style="text;html=1;strokeColor=none;fillColor=none;align=center;verticalAlign=middle;whiteSpace=wrap;rounded=0;fontSize=18;" parent="1" vertex="1">
          <mxGeometry x="1530" y="61" width="60" height="30" as="geometry" />
        </mxCell>
        <mxCell id="sHCcjTylrbnUzLHwBNiM-43" value="ML-100k" style="text;html=1;strokeColor=none;fillColor=none;align=center;verticalAlign=middle;whiteSpace=wrap;rounded=0;fontSize=18;" parent="1" vertex="1">
          <mxGeometry x="1711" y="61" width="91" height="30" as="geometry" />
        </mxCell>
        <mxCell id="sHCcjTylrbnUzLHwBNiM-44" value="Music" style="text;html=1;strokeColor=none;fillColor=none;align=center;verticalAlign=middle;whiteSpace=wrap;rounded=0;fontSize=18;" parent="1" vertex="1">
          <mxGeometry x="1852" y="61" width="60" height="30" as="geometry" />
        </mxCell>
        <mxCell id="sHCcjTylrbnUzLHwBNiM-45" value="&lt;font style=&quot;font-size: 18px;&quot;&gt;Recall@10&lt;/font&gt;" style="text;html=1;strokeColor=none;fillColor=none;align=center;verticalAlign=middle;whiteSpace=wrap;rounded=0;fontSize=18;" parent="1" vertex="1">
          <mxGeometry x="764.5" y="285" width="188" height="30" as="geometry" />
        </mxCell>
        <mxCell id="sHCcjTylrbnUzLHwBNiM-46" value="&lt;font style=&quot;font-size: 18px;&quot;&gt;MRR&lt;/font&gt;" style="text;html=1;strokeColor=none;fillColor=none;align=center;verticalAlign=middle;whiteSpace=wrap;rounded=0;fontSize=18;" parent="1" vertex="1">
          <mxGeometry x="1060.5" y="285" width="188" height="30" as="geometry" />
        </mxCell>
        <mxCell id="sHCcjTylrbnUzLHwBNiM-47" value="&lt;font style=&quot;font-size: 29px;&quot;&gt;(b)&amp;nbsp;SNL@n&lt;/font&gt;" style="text;html=1;strokeColor=none;fillColor=none;align=center;verticalAlign=middle;whiteSpace=wrap;rounded=0;fontSize=29;" parent="1" vertex="1">
          <mxGeometry x="853" y="320" width="292.83" height="30" as="geometry" />
        </mxCell>
        <mxCell id="sHCcjTylrbnUzLHwBNiM-48" value="&lt;font style=&quot;font-size: 18px;&quot;&gt;Recall@10&lt;/font&gt;" style="text;html=1;strokeColor=none;fillColor=none;align=center;verticalAlign=middle;whiteSpace=wrap;rounded=0;fontSize=18;" parent="1" vertex="1">
          <mxGeometry x="1413" y="285" width="188" height="30" as="geometry" />
        </mxCell>
        <mxCell id="sHCcjTylrbnUzLHwBNiM-49" value="&lt;font style=&quot;font-size: 18px;&quot;&gt;MRR&lt;/font&gt;" style="text;html=1;strokeColor=none;fillColor=none;align=center;verticalAlign=middle;whiteSpace=wrap;rounded=0;fontSize=18;" parent="1" vertex="1">
          <mxGeometry x="1709" y="285" width="188" height="30" as="geometry" />
        </mxCell>
        <mxCell id="sHCcjTylrbnUzLHwBNiM-50" value="&lt;font style=&quot;font-size: 29px;&quot;&gt;(c)&amp;nbsp;Time_Embedding&lt;/font&gt;" style="text;html=1;strokeColor=none;fillColor=none;align=center;verticalAlign=middle;whiteSpace=wrap;rounded=0;fontSize=29;" parent="1" vertex="1">
          <mxGeometry x="1530" y="320" width="252" height="30" as="geometry" />
        </mxCell>
        <mxCell id="xVzUcxpCqJK35BR_aFPY-3" value="" style="shape=image;verticalLabelPosition=bottom;labelBackgroundColor=default;verticalAlign=top;aspect=fixed;imageAspect=0;image=data:image/png,iVBORw0KGgoAAAANSUhEUgAAANMAAAA5CAYAAACs2B49AAAF1ElEQVR4nO3cP0gb/x/H8ac/fuAlU88SSupopdDaQUgmDdIlHSRIoRBcikMX3b7t0g6FgkPrIL+hQ0spEhD6Z+mPkCmHi410aIQgpiCEdCuhHDWLrefkd/iSa2KiX9N+9PL1+3pM8sld+Lxz97r7fD532Le/v7+PiPy2/wTdAZGzQmESMURhEjFEYRIxRGESMURhEjFEYRIxRGESMURhEjFEYRIxRGESMURhEjFEYRIxRGESMURhEjFEYRIxRGESMURhEjFEYRIxRGESMURhEjFEYRIxRGESMeS/QXfgNGWzWbLZLABLS0uHblepVMjlcpTLZTzPw7IsRkZGSKVSDA8Pn1Z3j61SqbCyskK5XKZerwNw9epVJiYmGB8f77jP2toaq6urfPr0CQDbtonH40xOThKJRE6t78f1T6ix79/wTyhd1+XFixf+jwrw6tWrjtuWSiWePn2K53nEYjEGBgaoVqtUq1Usy2JhYaGnTrZKpcLjx4/xPA/bthkYGODLly94ngfA3Nxc28mWzWZ5+/YtlmURj8cJhUIUi0Xq9TpDQ0PMz88HUcqhmms8eEygd2rsuTvTal9f1/tMHHE9KJVKvHz5knq9TiKRoFAoHPld7969w/M8ZmZmSCaTfvuzZ88oFAosLy9z9+7drvvYrC97s+t99qf+37F9Z2cH27a5efOmf0K5rsuTJ0+o1Wqsrq62nGiu65LNZrEsiwcPHvh32pmZGe7du0e1WiWbzTI1NfULlf3U98dq1/vs/2+iY/vOzg6Dg4Pcvn27ZWTQOCZB1XjQmZ8zbWxssLu7y9zcHLOzs0duWyqVqFarRKPRliAB3Lp1C4ByuXxiff0Vo6OjLC4utpxMkUiEGzduALTcjQFWVlbwPI94PN42ZG3s04s1zs/Pt/X32rVrAP5duCGoGs98mMbGxlhYWDh0XN1sa2sL+HmQmkUiEaLRKJ7nUSqVjPfTtHA43LH98+fPQOcaR0dHAfzhU6/78eNHx/agauy5YZ5p3SwY7O3tAX9NVDtpnKDfv3///Y6dsG/fvgEwNDTU0t64il+4cKFtn8Zc8OCVvhe5rks+nwcgkUi0fBZUjWc+TN1oXK3Onz/f8XPLsk6zO79lfX0dgCtXrrS0N2o87CJjWVbPhimTyQCwu7tLsVgEIJVKtQ3Jg6rxzA/zTBocHAy6C8fiOA7VahXbtpmenu5q316u0XEcHMehUCjgeR6hUIi9vT1c1+3qe06qRt2ZurC9vR10F/5WpVLhzZs3ANy5c6fr/Xu5xubHGY7jkM/ncRyHzc1NFhcXj/09J1Wj7kxNLl68CPycbxzUeFjYq1zX5fnz53ieRzqd9ifbzaLRKPBX6Drp9Robkskk9+/fx7IsarWa/zAegqtRYWoSCoWAw3/sxurR5cuXT61Px9X8bCmVSh36DKWxiPL169eO3wE/T8ZeF4lE/CFb8zELqkaFqcmlS5cA2NzcbPusUqlQq9Wwbbun3oCA1iDFYrEj50mN1b1ONX748AHo7XnTYfr7+/2/g6pRYWoyPj6ObdvUajXW1tZaPsvlcv42vWZ5edkP0t+9nTE2NgZAsVhsmbi7rsv79+8BuH79+sl19hdkMhl/Ja9Z4yE7QCwW89uDqvHML0CUSiU2Njba2hsHx7btliHR1NQUmUyGpaUlPn782PIeWDQa7Xp17KS9fv3aXwav1+s8fPiwbZtYLObXODw87L9W9ejRI0ZGRlreW0skEh3nWkHq7+8nl8tRLBb9/m5vb/t1p9PplmXwoGo882Ha2trCcZy29kbbwTAlk0nC4TD5fN4/WLZtk0wmmZycPJ1O/6LDnuoffHA7OzvLuXPnWF9f999VjEajpNNp4++rmTA9PU04HG7pr2VZR741HkSN/4q3xkVOg+ZMIoYoTCKGKEwihihMIoYoTCKGKEwihihMIoYoTCKGKEwihihMIoYoTCKGKEwihihMIoYoTCKGKEwihihMIoYoTCKG/Amq056DMjCDcgAAAABJRU5ErkJggg==;" vertex="1" parent="1">
          <mxGeometry x="306.75" y="22.43" width="164.5" height="44.44" as="geometry" />
        </mxCell>
      </root>
    </mxGraphModel>
  </diagram>
</mxfile>
